<svg width="420" height="30" viewBox="0 0 420 30" fill="none" xmlns="http://www.w3.org/2000/svg">
<path fill-rule="evenodd" clip-rule="evenodd" d="M16.9482 2C22.4711 2 26.9482 6.47716 26.9482 12L26.9482 18.9481C26.9482 24.471 22.4711 28.9481 16.9482 28.9481L10.0001 28.9481C4.47724 28.9481 9.3403e-05 24.471 9.38858e-05 18.9481L9.44932e-05 12C9.4976e-05 6.47715 4.47726 2 10.0001 2L16.9482 2ZM18.2678 6.32115C19.2738 7.32711 19.2738 8.95809 18.2678 9.96406L12.6816 15.5503L18.2678 21.1366C19.2738 22.1426 19.2738 23.7735 18.2678 24.7795C17.2619 25.7855 15.6309 25.7855 14.6249 24.7795L7.33912 17.4937C6.80515 16.9597 6.55461 16.2496 6.58752 15.5504C6.55457 14.8511 6.80511 14.141 7.33912 13.607L14.6249 6.32115C15.6309 5.31519 17.2619 5.31519 18.2678 6.32115Z" fill="#DFDFDF" fill-opacity="0.5"/>
<path fill-rule="evenodd" clip-rule="evenodd" d="M403 28.9482C397.477 28.9482 393 24.471 393 18.9481V12C393 6.47716 397.477 2 403 2H409.948C415.471 2 419.948 6.47717 419.948 12V18.9482C419.948 24.471 415.471 28.9482 409.948 28.9482H403ZM401.68 24.627C400.674 23.621 400.674 21.9901 401.68 20.9841L407.267 15.3978L401.68 9.81155C400.674 8.80559 400.674 7.1746 401.68 6.16864C402.686 5.16268 404.317 5.16268 405.323 6.16864L412.609 13.4545C413.143 13.9884 413.394 14.6985 413.361 15.3978C413.394 16.097 413.143 16.8072 412.609 17.3412L405.323 24.627C404.317 25.633 402.686 25.633 401.68 24.627Z" fill="#DFDFDF" fill-opacity="0.5"/>
<path d="M59.15 24C58.9833 24 58.8417 23.9417 58.725 23.825C58.6083 23.7083 58.55 23.5667 58.55 23.4V17.775L52.625 7.3C52.575 7.15 52.55 7.05833 52.55 7.025C52.55 6.875 52.6 6.75 52.7 6.65C52.8167 6.55 52.9417 6.5 53.075 6.5H55.325C55.6417 6.5 55.9 6.65833 56.1 6.975L60.3 14.225L64.525 6.975C64.5917 6.85833 64.6833 6.75 64.8 6.65C64.9333 6.55 65.0917 6.5 65.275 6.5H67.525C67.675 6.5 67.8 6.55 67.9 6.65C68 6.75 68.05 6.875 68.05 7.025C68.05 7.125 68.025 7.21667 67.975 7.3L62.075 17.775V23.4C62.075 23.5833 62.0167 23.7333 61.9 23.85C61.7833 23.95 61.6333 24 61.45 24H59.15ZM79.0447 24.25C76.7614 24.25 74.9864 23.675 73.7197 22.525C72.4531 21.375 71.7864 19.6667 71.7197 17.4C71.7031 16.9167 71.6947 16.2083 71.6947 15.275C71.6947 14.325 71.7031 13.6083 71.7197 13.125C71.7864 10.9083 72.4697 9.20833 73.7697 8.025C75.0697 6.84167 76.8281 6.25 79.0447 6.25C81.2447 6.25 82.9947 6.84167 84.2947 8.025C85.6114 9.20833 86.3031 10.9083 86.3697 13.125C86.4031 14.0917 86.4197 14.8083 86.4197 15.275C86.4197 15.725 86.4031 16.4333 86.3697 17.4C86.3031 19.6667 85.6281 21.375 84.3447 22.525C83.0781 23.675 81.3114 24.25 79.0447 24.25ZM79.0447 21.35C80.1614 21.35 81.0447 21.0167 81.6947 20.35C82.3447 19.6833 82.6947 18.6583 82.7447 17.275C82.7781 16.275 82.7947 15.6 82.7947 15.25C82.7947 14.8667 82.7781 14.1917 82.7447 13.225C82.6947 11.8583 82.3364 10.8417 81.6697 10.175C81.0031 9.49167 80.1281 9.15 79.0447 9.15C77.9447 9.15 77.0614 9.49167 76.3947 10.175C75.7281 10.8417 75.3781 11.8583 75.3447 13.225C75.3281 13.7083 75.3197 14.3833 75.3197 15.25C75.3197 16.1 75.3281 16.775 75.3447 17.275C75.3781 18.6417 75.7197 19.6667 76.3697 20.35C77.0364 21.0167 77.9281 21.35 79.0447 21.35ZM99.1775 24.25C96.9109 24.25 95.1525 23.675 93.9025 22.525C92.6525 21.375 92.0275 19.6333 92.0275 17.3V7.125C92.0275 6.94167 92.0775 6.79167 92.1775 6.675C92.2942 6.55833 92.4442 6.5 92.6275 6.5H94.9275C95.1109 6.5 95.2609 6.55833 95.3775 6.675C95.4942 6.79167 95.5525 6.94167 95.5525 7.125V17.3C95.5525 18.6167 95.8609 19.6083 96.4775 20.275C97.1109 20.9417 98.0025 21.275 99.1525 21.275C100.303 21.275 101.186 20.9417 101.803 20.275C102.436 19.6083 102.753 18.6167 102.753 17.3V7.125C102.753 6.94167 102.811 6.79167 102.928 6.675C103.044 6.55833 103.194 6.5 103.378 6.5H105.678C105.861 6.5 106.003 6.55833 106.103 6.675C106.219 6.79167 106.278 6.94167 106.278 7.125V17.3C106.278 19.6333 105.653 21.375 104.403 22.525C103.169 23.675 101.428 24.25 99.1775 24.25ZM127.463 24.25C125.163 24.25 123.379 23.6667 122.113 22.5C120.863 21.3167 120.196 19.6417 120.113 17.475C120.096 17.025 120.088 16.2917 120.088 15.275C120.088 14.2417 120.096 13.4917 120.113 13.025C120.196 10.8917 120.871 9.23333 122.138 8.05C123.404 6.85 125.179 6.25 127.463 6.25C128.946 6.25 130.238 6.50833 131.338 7.025C132.438 7.525 133.288 8.21667 133.888 9.1C134.504 9.98333 134.829 10.975 134.863 12.075V12.125C134.863 12.2583 134.804 12.375 134.688 12.475C134.588 12.5583 134.471 12.6 134.338 12.6H131.913C131.713 12.6 131.563 12.5583 131.463 12.475C131.363 12.375 131.279 12.2083 131.213 11.975C130.963 10.9417 130.529 10.2167 129.913 9.8C129.296 9.36667 128.479 9.15 127.463 9.15C125.079 9.15 123.838 10.4833 123.738 13.15C123.721 13.6 123.713 14.2917 123.713 15.225C123.713 16.1583 123.721 16.8667 123.738 17.35C123.838 20.0167 125.079 21.35 127.463 21.35C128.463 21.35 129.271 21.1417 129.888 20.725C130.521 20.2917 130.963 19.5583 131.213 18.525C131.279 18.2917 131.363 18.1333 131.463 18.05C131.563 17.95 131.713 17.9 131.913 17.9H134.338C134.488 17.9 134.613 17.95 134.713 18.05C134.829 18.15 134.879 18.275 134.863 18.425C134.829 19.525 134.504 20.5167 133.888 21.4C133.288 22.2833 132.438 22.9833 131.338 23.5C130.238 24 128.946 24.25 127.463 24.25ZM139.057 24C138.907 24 138.782 23.95 138.682 23.85C138.582 23.75 138.532 23.625 138.532 23.475L138.582 23.25L144.582 7.125C144.748 6.70833 145.048 6.5 145.482 6.5H148.232C148.665 6.5 148.965 6.70833 149.132 7.125L155.132 23.25L155.182 23.475C155.182 23.625 155.123 23.75 155.007 23.85C154.907 23.95 154.79 24 154.657 24H152.432C152.082 24 151.84 23.8417 151.707 23.525L150.557 20.5H143.157L142.007 23.525C141.873 23.8417 141.632 24 141.282 24H139.057ZM144.032 17.6H149.682L146.857 9.9L144.032 17.6ZM160.59 24C160.423 24 160.282 23.9417 160.165 23.825C160.048 23.7083 159.99 23.5667 159.99 23.4V7.125C159.99 6.94167 160.04 6.79167 160.14 6.675C160.257 6.55833 160.407 6.5 160.59 6.5H162.54C162.857 6.5 163.098 6.64167 163.265 6.925L170.415 18.025V7.125C170.415 6.94167 170.465 6.79167 170.565 6.675C170.682 6.55833 170.832 6.5 171.015 6.5H173.165C173.348 6.5 173.498 6.55833 173.615 6.675C173.732 6.79167 173.79 6.94167 173.79 7.125V23.375C173.79 23.5583 173.732 23.7083 173.615 23.825C173.498 23.9417 173.357 24 173.19 24H171.215C170.882 24 170.632 23.8583 170.465 23.575L163.34 12.725V23.4C163.34 23.5667 163.282 23.7083 163.165 23.825C163.065 23.9417 162.923 24 162.74 24H160.59ZM195.354 24.25C193.088 24.25 191.329 23.675 190.079 22.525C188.829 21.375 188.204 19.6333 188.204 17.3V7.125C188.204 6.94167 188.254 6.79167 188.354 6.675C188.471 6.55833 188.621 6.5 188.804 6.5H191.104C191.288 6.5 191.438 6.55833 191.554 6.675C191.671 6.79167 191.729 6.94167 191.729 7.125V17.3C191.729 18.6167 192.038 19.6083 192.654 20.275C193.288 20.9417 194.179 21.275 195.329 21.275C196.479 21.275 197.363 20.9417 197.979 20.275C198.613 19.6083 198.929 18.6167 198.929 17.3V7.125C198.929 6.94167 198.988 6.79167 199.104 6.675C199.221 6.55833 199.371 6.5 199.554 6.5H201.854C202.038 6.5 202.179 6.55833 202.279 6.675C202.396 6.79167 202.454 6.94167 202.454 7.125V17.3C202.454 19.6333 201.829 21.375 200.579 22.525C199.346 23.675 197.604 24.25 195.354 24.25ZM214.801 24.25C213.301 24.25 212.018 24.025 210.951 23.575C209.884 23.125 209.076 22.5333 208.526 21.8C207.976 21.0667 207.684 20.2667 207.651 19.4C207.651 19.2667 207.701 19.15 207.801 19.05C207.901 18.9333 208.026 18.875 208.176 18.875H210.451C210.634 18.875 210.784 18.9167 210.901 19C211.018 19.0833 211.126 19.2 211.226 19.35C211.393 19.9167 211.768 20.3917 212.351 20.775C212.951 21.1583 213.768 21.35 214.801 21.35C215.968 21.35 216.843 21.1583 217.426 20.775C218.026 20.375 218.326 19.8333 218.326 19.15C218.326 18.7 218.176 18.325 217.876 18.025C217.576 17.725 217.118 17.4667 216.501 17.25C215.901 17.0167 215.001 16.7417 213.801 16.425C211.834 15.9583 210.393 15.3417 209.476 14.575C208.559 13.8083 208.101 12.7083 208.101 11.275C208.101 10.3083 208.368 9.45 208.901 8.7C209.434 7.93333 210.193 7.33333 211.176 6.9C212.176 6.46667 213.334 6.25 214.651 6.25C216.034 6.25 217.226 6.49167 218.226 6.975C219.243 7.45833 220.009 8.06667 220.526 8.8C221.059 9.51667 221.343 10.2333 221.376 10.95C221.376 11.0833 221.326 11.2083 221.226 11.325C221.126 11.425 221.001 11.475 220.851 11.475H218.476C218.109 11.475 217.859 11.325 217.726 11.025C217.643 10.4917 217.318 10.05 216.751 9.7C216.184 9.33333 215.484 9.15 214.651 9.15C213.734 9.15 213.009 9.325 212.476 9.675C211.959 10.025 211.701 10.5333 211.701 11.2C211.701 11.65 211.834 12.025 212.101 12.325C212.368 12.625 212.784 12.8917 213.351 13.125C213.918 13.3417 214.743 13.5917 215.826 13.875C217.309 14.2083 218.484 14.5833 219.351 15C220.234 15.4167 220.884 15.9417 221.301 16.575C221.718 17.2083 221.926 18.0167 221.926 19C221.926 20.0833 221.626 21.025 221.026 21.825C220.443 22.6083 219.609 23.2083 218.526 23.625C217.459 24.0417 216.218 24.25 214.801 24.25ZM227.865 24C227.699 24 227.557 23.9417 227.44 23.825C227.324 23.7083 227.265 23.5667 227.265 23.4V7.125C227.265 6.94167 227.315 6.79167 227.415 6.675C227.532 6.55833 227.682 6.5 227.865 6.5H238.89C239.074 6.5 239.224 6.55833 239.34 6.675C239.457 6.79167 239.515 6.94167 239.515 7.125V8.8C239.515 8.98333 239.457 9.13333 239.34 9.25C239.224 9.35 239.074 9.4 238.89 9.4H230.69V13.775H238.34C238.524 13.775 238.674 13.8333 238.79 13.95C238.907 14.0667 238.965 14.2167 238.965 14.4V15.975C238.965 16.1583 238.907 16.3083 238.79 16.425C238.674 16.525 238.524 16.575 238.34 16.575H230.69V21.1H239.09C239.274 21.1 239.424 21.1583 239.54 21.275C239.657 21.375 239.715 21.5167 239.715 21.7V23.4C239.715 23.5833 239.657 23.7333 239.54 23.85C239.424 23.95 239.274 24 239.09 24H227.865ZM251.796 24C251.646 24 251.521 23.95 251.421 23.85C251.321 23.75 251.271 23.625 251.271 23.475L251.321 23.25L257.321 7.125C257.488 6.70833 257.788 6.5 258.221 6.5H260.971C261.404 6.5 261.704 6.70833 261.871 7.125L267.871 23.25L267.921 23.475C267.921 23.625 267.863 23.75 267.746 23.85C267.646 23.95 267.529 24 267.396 24H265.171C264.821 24 264.579 23.8417 264.446 23.525L263.296 20.5H255.896L254.746 23.525C254.613 23.8417 254.371 24 254.021 24H251.796ZM256.771 17.6H262.421L259.596 9.9L256.771 17.6ZM273.329 24C273.163 24 273.021 23.9417 272.904 23.825C272.788 23.7083 272.729 23.5667 272.729 23.4V7.125C272.729 6.94167 272.779 6.79167 272.879 6.675C272.996 6.55833 273.146 6.5 273.329 6.5H279.804C281.854 6.5 283.454 6.975 284.604 7.925C285.771 8.875 286.354 10.225 286.354 11.975C286.354 13.1917 286.063 14.2167 285.479 15.05C284.896 15.8667 284.079 16.4583 283.029 16.825L286.654 23.2C286.704 23.3 286.729 23.3917 286.729 23.475C286.729 23.625 286.671 23.75 286.554 23.85C286.454 23.95 286.338 24 286.204 24H283.904C283.638 24 283.429 23.9417 283.279 23.825C283.129 23.6917 282.996 23.525 282.879 23.325L279.679 17.4H276.254V23.4C276.254 23.5667 276.196 23.7083 276.079 23.825C275.963 23.9417 275.813 24 275.629 24H273.329ZM279.729 14.55C280.729 14.55 281.479 14.3333 281.979 13.9C282.479 13.45 282.729 12.8 282.729 11.95C282.729 11.1 282.479 10.45 281.979 10C281.479 9.53333 280.729 9.3 279.729 9.3H276.254V14.55H279.729ZM292.675 24C292.508 24 292.367 23.9417 292.25 23.825C292.133 23.7083 292.075 23.5667 292.075 23.4V7.125C292.075 6.94167 292.125 6.79167 292.225 6.675C292.342 6.55833 292.492 6.5 292.675 6.5H299.15C301.2 6.5 302.8 6.975 303.95 7.925C305.117 8.875 305.7 10.225 305.7 11.975C305.7 13.1917 305.408 14.2167 304.825 15.05C304.242 15.8667 303.425 16.4583 302.375 16.825L306 23.2C306.05 23.3 306.075 23.3917 306.075 23.475C306.075 23.625 306.017 23.75 305.9 23.85C305.8 23.95 305.683 24 305.55 24H303.25C302.983 24 302.775 23.9417 302.625 23.825C302.475 23.6917 302.342 23.525 302.225 23.325L299.025 17.4H295.6V23.4C295.6 23.5667 295.542 23.7083 295.425 23.825C295.308 23.9417 295.158 24 294.975 24H292.675ZM299.075 14.55C300.075 14.55 300.825 14.3333 301.325 13.9C301.825 13.45 302.075 12.8 302.075 11.95C302.075 11.1 301.825 10.45 301.325 10C300.825 9.53333 300.075 9.3 299.075 9.3H295.6V14.55H299.075ZM318.122 24.25C315.839 24.25 314.064 23.675 312.797 22.525C311.53 21.375 310.864 19.6667 310.797 17.4C310.78 16.9167 310.772 16.2083 310.772 15.275C310.772 14.325 310.78 13.6083 310.797 13.125C310.864 10.9083 311.547 9.20833 312.847 8.025C314.147 6.84167 315.905 6.25 318.122 6.25C320.322 6.25 322.072 6.84167 323.372 8.025C324.689 9.20833 325.38 10.9083 325.447 13.125C325.48 14.0917 325.497 14.8083 325.497 15.275C325.497 15.725 325.48 16.4333 325.447 17.4C325.38 19.6667 324.705 21.375 323.422 22.525C322.155 23.675 320.389 24.25 318.122 24.25ZM318.122 21.35C319.239 21.35 320.122 21.0167 320.772 20.35C321.422 19.6833 321.772 18.6583 321.822 17.275C321.855 16.275 321.872 15.6 321.872 15.25C321.872 14.8667 321.855 14.1917 321.822 13.225C321.772 11.8583 321.414 10.8417 320.747 10.175C320.08 9.49167 319.205 9.15 318.122 9.15C317.022 9.15 316.139 9.49167 315.472 10.175C314.805 10.8417 314.455 11.8583 314.422 13.225C314.405 13.7083 314.397 14.3833 314.397 15.25C314.397 16.1 314.405 16.775 314.422 17.275C314.455 18.6417 314.797 19.6667 315.447 20.35C316.114 21.0167 317.005 21.35 318.122 21.35ZM333.934 24C333.451 24 333.151 23.75 333.034 23.25L330.084 7.225L330.059 7.025C330.059 6.875 330.109 6.75 330.209 6.65C330.309 6.55 330.434 6.5 330.584 6.5H332.834C333.051 6.5 333.209 6.54167 333.309 6.625C333.409 6.69167 333.476 6.81667 333.509 7L335.584 18.25L337.809 11C337.976 10.5833 338.251 10.375 338.634 10.375H340.009C340.226 10.375 340.401 10.4417 340.534 10.575C340.668 10.6917 340.759 10.8333 340.809 11L343.059 18.25L345.109 7C345.159 6.66667 345.393 6.5 345.809 6.5H348.059C348.193 6.5 348.309 6.55 348.409 6.65C348.509 6.75 348.559 6.875 348.559 7.025C348.559 7.10833 348.551 7.175 348.534 7.225L345.584 23.25C345.551 23.4833 345.451 23.6667 345.284 23.8C345.134 23.9333 344.934 24 344.684 24H342.984C342.751 24 342.559 23.9417 342.409 23.825C342.259 23.6917 342.159 23.5417 342.109 23.375L339.309 15.075L336.509 23.375C336.376 23.7917 336.084 24 335.634 24H333.934ZM359.923 24.25C358.423 24.25 357.14 24.025 356.073 23.575C355.006 23.125 354.198 22.5333 353.648 21.8C353.098 21.0667 352.806 20.2667 352.773 19.4C352.773 19.2667 352.823 19.15 352.923 19.05C353.023 18.9333 353.148 18.875 353.298 18.875H355.573C355.756 18.875 355.906 18.9167 356.023 19C356.14 19.0833 356.248 19.2 356.348 19.35C356.515 19.9167 356.89 20.3917 357.473 20.775C358.073 21.1583 358.89 21.35 359.923 21.35C361.09 21.35 361.965 21.1583 362.548 20.775C363.148 20.375 363.448 19.8333 363.448 19.15C363.448 18.7 363.298 18.325 362.998 18.025C362.698 17.725 362.24 17.4667 361.623 17.25C361.023 17.0167 360.123 16.7417 358.923 16.425C356.956 15.9583 355.515 15.3417 354.598 14.575C353.681 13.8083 353.223 12.7083 353.223 11.275C353.223 10.3083 353.49 9.45 354.023 8.7C354.556 7.93333 355.315 7.33333 356.298 6.9C357.298 6.46667 358.456 6.25 359.773 6.25C361.156 6.25 362.348 6.49167 363.348 6.975C364.365 7.45833 365.131 8.06667 365.648 8.8C366.181 9.51667 366.465 10.2333 366.498 10.95C366.498 11.0833 366.448 11.2083 366.348 11.325C366.248 11.425 366.123 11.475 365.973 11.475H363.598C363.231 11.475 362.981 11.325 362.848 11.025C362.765 10.4917 362.44 10.05 361.873 9.7C361.306 9.33333 360.606 9.15 359.773 9.15C358.856 9.15 358.131 9.325 357.598 9.675C357.081 10.025 356.823 10.5333 356.823 11.2C356.823 11.65 356.956 12.025 357.223 12.325C357.49 12.625 357.906 12.8917 358.473 13.125C359.04 13.3417 359.865 13.5917 360.948 13.875C362.431 14.2083 363.606 14.5833 364.473 15C365.356 15.4167 366.006 15.9417 366.423 16.575C366.84 17.2083 367.048 18.0167 367.048 19C367.048 20.0833 366.748 21.025 366.148 21.825C365.565 22.6083 364.731 23.2083 363.648 23.625C362.581 24.0417 361.34 24.25 359.923 24.25Z" fill="#DFDFDF" fill-opacity="0.5"/>
<path d="M58.55 17.775H59.55V17.5118L59.4204 17.2827L58.55 17.775ZM52.625 7.3L51.6763 7.61623L51.7069 7.70807L51.7546 7.79233L52.625 7.3ZM52.7 6.65L52.0492 5.89075L52.02 5.91574L51.9929 5.94289L52.7 6.65ZM56.1 6.975L56.9653 6.47373L56.9557 6.45718L56.9455 6.44101L56.1 6.975ZM60.3 14.225L59.4347 14.7263L60.2974 16.2155L61.164 14.7285L60.3 14.225ZM64.525 6.975L65.389 7.47852L65.3932 7.47113L64.525 6.975ZM64.8 6.65L64.2 5.85L64.1739 5.86954L64.1492 5.89074L64.8 6.65ZM67.9 6.65L67.1929 7.3571L67.1929 7.35711L67.9 6.65ZM67.975 7.3L67.1175 6.78551L67.1104 6.79728L67.1037 6.80924L67.975 7.3ZM62.075 17.775L61.2037 17.2842L61.075 17.5127V17.775H62.075ZM61.9 23.85L62.5508 24.6093L62.58 24.5843L62.6071 24.5571L61.9 23.85ZM59.15 23C59.1857 23 59.2393 23.0068 59.2995 23.0316C59.3599 23.0564 59.4043 23.0901 59.4321 23.1179L58.0179 24.5321C58.3242 24.8384 58.7211 25 59.15 25V23ZM59.4321 23.1179C59.4599 23.1457 59.4936 23.1901 59.5184 23.2505C59.5432 23.3107 59.55 23.3643 59.55 23.4H57.55C57.55 23.8289 57.7116 24.2258 58.0179 24.5321L59.4321 23.1179ZM59.55 23.4V17.775H57.55V23.4H59.55ZM59.4204 17.2827L53.4954 6.80767L51.7546 7.79233L57.6796 18.2673L59.4204 17.2827ZM53.5737 6.98377C53.5629 6.95131 53.5541 6.92422 53.5473 6.90204C53.5403 6.8795 53.5359 6.86445 53.5335 6.85563C53.5324 6.85139 53.532 6.8499 53.5322 6.85076C53.5324 6.8514 53.5336 6.85638 53.5353 6.86482C53.5368 6.87262 53.5399 6.88877 53.5428 6.91089C53.5443 6.92229 53.546 6.93731 53.5473 6.95524C53.5487 6.97285 53.55 6.99662 53.55 7.025H51.55C51.55 7.19621 51.5963 7.35365 51.604 7.38187C51.6235 7.45334 51.6487 7.53352 51.6763 7.61623L53.5737 6.98377ZM53.55 7.025C53.55 7.06272 53.5433 7.12176 53.516 7.19014C53.4882 7.25969 53.4479 7.31627 53.4071 7.35711L51.9929 5.94289C51.6931 6.24269 51.55 6.62764 51.55 7.025H53.55ZM53.3508 7.40925C53.3375 7.42067 53.3052 7.44496 53.2526 7.46597C53.1982 7.48775 53.1368 7.5 53.075 7.5V5.5C52.667 5.5 52.3178 5.66048 52.0492 5.89075L53.3508 7.40925ZM53.075 7.5H55.325V5.5H53.075V7.5ZM55.325 7.5C55.32 7.5 55.3059 7.49925 55.2861 7.4938C55.266 7.48827 55.2478 7.48002 55.2337 7.47135C55.205 7.4538 55.2174 7.45024 55.2545 7.50899L56.9455 6.44101C56.6013 5.89606 56.052 5.5 55.325 5.5V7.5ZM55.2347 7.47627L59.4347 14.7263L61.1653 13.7237L56.9653 6.47373L55.2347 7.47627ZM61.164 14.7285L65.389 7.4785L63.661 6.4715L59.436 13.7215L61.164 14.7285ZM65.3932 7.47113C65.3955 7.46716 65.4088 7.44522 65.4508 7.40926L64.1492 5.89074C63.9578 6.05478 63.7878 6.2495 63.6568 6.47886L65.3932 7.47113ZM65.4 7.45C65.3768 7.46742 65.3487 7.48198 65.3199 7.49108C65.2921 7.49987 65.2749 7.5 65.275 7.5V5.5C64.8981 5.5 64.5238 5.60711 64.2 5.85L65.4 7.45ZM65.275 7.5H67.525V5.5H65.275V7.5ZM67.525 7.5C67.4873 7.5 67.4282 7.49333 67.3599 7.46597C67.2903 7.43816 67.2337 7.39794 67.1929 7.3571L68.6071 5.9429C68.3073 5.6431 67.9224 5.5 67.525 5.5V7.5ZM67.1929 7.35711C67.1521 7.31627 67.1118 7.25968 67.084 7.19014C67.0567 7.12176 67.05 7.06272 67.05 7.025H69.05C69.05 6.62764 68.9069 6.24269 68.6071 5.94289L67.1929 7.35711ZM67.05 7.025C67.05 6.99078 67.0544 6.94994 67.0665 6.90563C67.0786 6.86115 67.0965 6.82052 67.1175 6.78551L68.8325 7.81449C68.9785 7.57108 69.05 7.30073 69.05 7.025H67.05ZM67.1037 6.80924L61.2037 17.2842L62.9463 18.2658L68.8463 7.79075L67.1037 6.80924ZM61.075 17.775V23.4H63.075V17.775H61.075ZM61.075 23.4C61.075 23.3848 61.0777 23.343 61.0992 23.2876C61.1216 23.23 61.1557 23.1801 61.1929 23.1429L62.6071 24.5571C62.933 24.2312 63.075 23.8163 63.075 23.4H61.075ZM61.2492 23.0907C61.292 23.0541 61.3397 23.0285 61.3838 23.0138C61.4255 22.9999 61.451 23 61.45 23V25C61.8237 25 62.2193 24.8934 62.5508 24.6093L61.2492 23.0907ZM61.45 23H59.15V25H61.45V23ZM73.7197 22.525L73.0475 23.2654L73.7197 22.525ZM71.7197 17.4L72.7193 17.3706L72.7191 17.3655L71.7197 17.4ZM71.7197 13.125L72.7191 13.1595L72.7193 13.1551L71.7197 13.125ZM73.7697 8.025L73.0966 7.28549L73.0966 7.28549L73.7697 8.025ZM84.2947 8.025L83.6216 8.76452L83.6263 8.76876L84.2947 8.025ZM86.3697 13.125L85.3702 13.1551L85.3703 13.1595L86.3697 13.125ZM86.3697 17.4L85.3703 17.3655L85.3702 17.3706L86.3697 17.4ZM84.3447 22.525L83.6774 21.7802L83.6725 21.7846L84.3447 22.525ZM81.6947 20.35L80.9787 19.6519L80.9787 19.6519L81.6947 20.35ZM82.7447 17.275L83.7441 17.3111L83.7442 17.3083L82.7447 17.275ZM82.7447 13.225L83.7441 13.1905L83.7441 13.1884L82.7447 13.225ZM81.6697 10.175L80.9539 10.8734L80.9626 10.8821L81.6697 10.175ZM76.3947 10.175L77.1019 10.8822L77.1105 10.8733L76.3947 10.175ZM75.3447 13.225L76.3442 13.2595L76.3444 13.2494L75.3447 13.225ZM75.3447 17.275L76.3445 17.2506L76.3442 17.2417L75.3447 17.275ZM76.3697 20.35L75.6452 21.0392L75.6538 21.0483L75.6626 21.0571L76.3697 20.35ZM79.0447 23.25C76.9253 23.25 75.4203 22.7182 74.3919 21.7846L73.0475 23.2654C74.5525 24.6318 76.5975 25.25 79.0447 25.25V23.25ZM74.3919 21.7846C73.3857 20.8711 72.7807 19.4577 72.7193 17.3706L70.7202 17.4294C70.7921 19.8756 71.5204 21.8789 73.0475 23.2654L74.3919 21.7846ZM72.7191 17.3655C72.7031 16.8998 72.6947 16.2053 72.6947 15.275H70.6947C70.6947 16.2114 70.703 16.9335 70.7203 17.4345L72.7191 17.3655ZM72.6947 15.275C72.6947 14.3278 72.7031 13.6251 72.7191 13.1595L70.7203 13.0905C70.703 13.5916 70.6947 14.3222 70.6947 15.275H72.6947ZM72.7193 13.1551C72.78 11.1343 73.3928 9.72037 74.4429 8.76451L73.0966 7.28549C71.5467 8.69629 70.7927 10.6823 70.7202 13.0949L72.7193 13.1551ZM74.4429 8.76451C75.5143 7.78924 77.0096 7.25 79.0447 7.25V5.25C76.6465 5.25 74.6252 5.89409 73.0966 7.28549L74.4429 8.76451ZM79.0447 7.25C81.0609 7.25 82.5488 7.78802 83.6216 8.76451L84.9679 7.28549C83.4406 5.89531 81.4285 5.25 79.0447 5.25V7.25ZM83.6263 8.76876C84.6909 9.72555 85.3095 11.1381 85.3702 13.1551L87.3693 13.0949C87.2966 10.6785 86.5319 8.69111 84.9632 7.28124L83.6263 8.76876ZM85.3703 13.1595C85.4036 14.1241 85.4197 14.8264 85.4197 15.275H87.4197C87.4197 14.7902 87.4025 14.0593 87.3691 13.0905L85.3703 13.1595ZM85.4197 15.275C85.4197 15.7067 85.4036 16.4004 85.3703 17.3655L87.3691 17.4345C87.4025 16.4662 87.4197 15.7433 87.4197 15.275H85.4197ZM85.3702 17.3706C85.3089 19.4539 84.6978 20.8659 83.6774 21.7803L85.0121 23.2697C86.5583 21.8841 87.2972 19.8794 87.3693 17.4294L85.3702 17.3706ZM83.6725 21.7846C82.6429 22.7194 81.1453 23.25 79.0447 23.25V25.25C81.4775 25.25 83.5132 24.6306 85.0169 23.2654L83.6725 21.7846ZM79.0447 22.35C80.3732 22.35 81.5357 21.9456 82.4107 21.0481L80.9787 19.6519C80.5538 20.0878 79.9495 20.35 79.0447 20.35V22.35ZM82.4107 21.0481C83.3019 20.1341 83.6894 18.8246 83.7441 17.3111L81.7454 17.2389C81.7001 18.4921 81.3876 19.2326 80.9787 19.6519L82.4107 21.0481ZM83.7442 17.3083C83.7774 16.3105 83.7947 15.6192 83.7947 15.25H81.7947C81.7947 15.5808 81.7787 16.2395 81.7453 17.2417L83.7442 17.3083ZM83.7947 15.25C83.7947 14.8474 83.7774 14.1566 83.7441 13.1905L81.7453 13.2595C81.7787 14.2267 81.7947 14.8859 81.7947 15.25H83.7947ZM83.7441 13.1884C83.6889 11.682 83.2884 10.3794 82.3768 9.46789L80.9626 10.8821C81.3844 11.3039 81.7005 12.0347 81.7454 13.2616L83.7441 13.1884ZM82.3855 9.47668C81.5046 8.57376 80.3579 8.15 79.0447 8.15V10.15C79.8983 10.15 80.5015 10.4096 80.9539 10.8733L82.3855 9.47668ZM79.0447 8.15C77.7199 8.15 76.5629 8.57067 75.6789 9.47668L77.1105 10.8733C77.5599 10.4127 78.1696 10.15 79.0447 10.15V8.15ZM75.6876 9.46789C74.7718 10.3837 74.3818 11.6921 74.345 13.2006L76.3444 13.2494C76.3743 12.0246 76.6843 11.2996 77.1018 10.8821L75.6876 9.46789ZM74.3453 13.1905C74.3281 13.6909 74.3197 14.3793 74.3197 15.25H76.3197C76.3197 14.3874 76.3281 13.7257 76.3441 13.2595L74.3453 13.1905ZM74.3197 15.25C74.3197 16.1046 74.3281 16.7922 74.3453 17.3083L76.3442 17.2417C76.328 16.7578 76.3197 16.0954 76.3197 15.25H74.3197ZM74.345 17.2994C74.3817 18.804 74.761 20.1097 75.6452 21.0392L77.0943 19.6608C76.6785 19.2236 76.3744 18.4793 76.3444 17.2506L74.345 17.2994ZM75.6626 21.0571C76.551 21.9455 77.7154 22.35 79.0447 22.35V20.35C78.1407 20.35 77.5218 20.0879 77.0768 19.6429L75.6626 21.0571ZM93.9025 22.525L93.2255 23.2609L93.2255 23.2609L93.9025 22.525ZM92.1775 6.675L91.4704 5.96789L91.4433 5.99505L91.4183 6.02421L92.1775 6.675ZM95.3775 6.675L94.6704 7.3821L94.6704 7.38211L95.3775 6.675ZM96.4775 20.275L95.7434 20.9541L95.7525 20.9637L96.4775 20.275ZM101.803 20.275L101.077 19.5862L101.068 19.596L101.803 20.275ZM102.928 6.675L102.22 5.96789L102.928 6.675ZM106.103 6.675L105.343 7.32579L105.368 7.35495L105.395 7.38211L106.103 6.675ZM104.403 22.525L103.725 21.7891L103.721 21.7936L104.403 22.525ZM99.1775 23.25C97.0761 23.25 95.5905 22.7191 94.5796 21.7891L93.2255 23.2609C94.7146 24.6309 96.7456 25.25 99.1775 25.25V23.25ZM94.5796 21.7891C93.6035 20.891 93.0275 19.4619 93.0275 17.3H91.0275C91.0275 19.8048 91.7016 21.859 93.2255 23.2609L94.5796 21.7891ZM93.0275 17.3V7.125H91.0275V17.3H93.0275ZM93.0275 7.125C93.0275 7.12403 93.0276 7.14947 93.0137 7.19123C92.999 7.23532 92.9734 7.28304 92.9368 7.32579L91.4183 6.02421C91.1341 6.35571 91.0275 6.75128 91.0275 7.125H93.0275ZM92.8846 7.3821C92.8475 7.41929 92.7975 7.45338 92.74 7.47575C92.6845 7.49733 92.6428 7.5 92.6275 7.5V5.5C92.2113 5.5 91.7963 5.64202 91.4704 5.96789L92.8846 7.3821ZM92.6275 7.5H94.9275V5.5H92.6275V7.5ZM94.9275 7.5C94.9123 7.5 94.8706 7.49733 94.8151 7.47575C94.7576 7.45338 94.7076 7.41929 94.6704 7.3821L96.0846 5.96789C95.7588 5.64202 95.3438 5.5 94.9275 5.5V7.5ZM94.6704 7.38211C94.6332 7.34492 94.5992 7.29498 94.5768 7.23745C94.5552 7.18197 94.5525 7.14023 94.5525 7.125H96.5525C96.5525 6.70875 96.4105 6.29376 96.0846 5.96789L94.6704 7.38211ZM94.5525 7.125V17.3H96.5525V7.125H94.5525ZM94.5525 17.3C94.5525 18.7563 94.8925 20.0341 95.7434 20.954L97.2116 19.596C96.8293 19.1826 96.5525 18.477 96.5525 17.3H94.5525ZM95.7525 20.9637C96.6197 21.8766 97.8016 22.275 99.1525 22.275V20.275C98.2035 20.275 97.602 20.0067 97.2025 19.5863L95.7525 20.9637ZM99.1525 22.275C100.502 22.275 101.683 21.8769 102.537 20.954L101.068 19.596C100.689 20.0064 100.103 20.275 99.1525 20.275V22.275ZM102.528 20.9637C103.401 20.0441 103.753 18.7625 103.753 17.3H101.753C101.753 18.4709 101.471 19.1725 101.078 19.5863L102.528 20.9637ZM103.753 17.3V7.125H101.753V17.3H103.753ZM103.753 7.125C103.753 7.14023 103.75 7.18197 103.728 7.23744C103.706 7.29498 103.672 7.34492 103.635 7.38211L102.22 5.96789C101.895 6.29376 101.753 6.70875 101.753 7.125H103.753ZM103.635 7.38211C103.597 7.41929 103.548 7.45338 103.49 7.47575C103.435 7.49733 103.393 7.5 103.378 7.5V5.5C102.961 5.5 102.546 5.64202 102.22 5.96789L103.635 7.38211ZM103.378 7.5H105.678V5.5H103.378V7.5ZM105.678 7.5C105.664 7.5 105.612 7.49775 105.541 7.46843C105.465 7.43728 105.396 7.38699 105.343 7.32579L106.862 6.02421C106.535 5.64279 106.091 5.5 105.678 5.5V7.5ZM105.395 7.38211C105.358 7.34492 105.324 7.29498 105.302 7.23744C105.28 7.18197 105.278 7.14023 105.278 7.125H107.278C107.278 6.70875 107.136 6.29376 106.81 5.96789L105.395 7.38211ZM105.278 7.125V17.3H107.278V7.125H105.278ZM105.278 17.3C105.278 19.4619 104.702 20.891 103.725 21.7891L105.08 23.2609C106.603 21.859 107.278 19.8048 107.278 17.3H105.278ZM103.721 21.7936C102.727 22.7199 101.261 23.25 99.1775 23.25V25.25C101.594 25.25 103.611 24.6301 105.085 23.2564L103.721 21.7936ZM122.113 22.5L121.425 23.2263L121.435 23.2355L122.113 22.5ZM120.113 17.475L119.113 17.512L119.113 17.5134L120.113 17.475ZM120.113 13.025L119.113 12.986L119.113 12.9893L120.113 13.025ZM122.138 8.05L122.82 8.78075L122.825 8.77595L122.138 8.05ZM131.338 7.025L130.913 7.9302L130.924 7.93537L131.338 7.025ZM133.888 9.1L133.06 9.66193L133.068 9.67242L133.888 9.1ZM134.863 12.075H135.863V12.0599L135.862 12.0447L134.863 12.075ZM134.688 12.475L135.328 13.2433L135.338 13.2343L134.688 12.475ZM131.463 12.475L130.756 13.1821L130.788 13.2142L130.823 13.2432L131.463 12.475ZM131.213 11.975L130.241 12.2102L130.246 12.23L130.251 12.2497L131.213 11.975ZM129.913 9.8L129.338 10.6182L129.345 10.6235L129.353 10.6286L129.913 9.8ZM123.738 13.15L122.738 13.1125L122.738 13.113L123.738 13.15ZM123.738 17.35L122.738 17.3845L122.738 17.3875L123.738 17.35ZM129.888 20.725L130.448 21.5536L130.452 21.5503L129.888 20.725ZM131.213 18.525L130.251 18.2503L130.246 18.27L130.241 18.2898L131.213 18.525ZM131.463 18.05L132.103 18.8182L132.138 18.7892L132.17 18.7571L131.463 18.05ZM134.713 18.05L134.006 18.7571L134.033 18.7843L134.062 18.8093L134.713 18.05ZM134.863 18.425L133.869 18.3146L133.864 18.3545L133.863 18.3947L134.863 18.425ZM133.888 21.4L133.068 20.8275L133.06 20.8381L133.888 21.4ZM131.338 23.5L131.752 24.4104L131.763 24.4051L131.338 23.5ZM127.463 23.25C125.328 23.25 123.817 22.7107 122.79 21.7645L121.435 23.2355C122.941 24.6227 124.998 25.25 127.463 25.25V23.25ZM122.8 21.7738C121.786 20.8138 121.188 19.4133 121.112 17.4366L119.113 17.5134C119.204 19.8701 119.939 21.8195 121.425 23.2262L122.8 21.7738ZM121.112 17.438C121.096 17.008 121.088 16.2907 121.088 15.275H119.088C119.088 16.2926 119.096 17.042 119.113 17.512L121.112 17.438ZM121.088 15.275C121.088 14.2429 121.096 13.5082 121.112 13.0607L119.113 12.9893C119.096 13.4752 119.088 14.2404 119.088 15.275H121.088ZM121.112 13.064C121.188 11.1293 121.789 9.74441 122.82 8.78074L121.455 7.31926C119.953 8.72226 119.205 10.654 119.113 12.986L121.112 13.064ZM122.825 8.77595C123.855 7.80092 125.354 7.25 127.463 7.25V5.25C125.005 5.25 122.954 5.89908 121.45 7.32405L122.825 8.77595ZM127.463 7.25C128.831 7.25 129.972 7.48817 130.913 7.93013L131.763 6.11987C130.504 5.52849 129.061 5.25 127.463 5.25V7.25ZM130.924 7.93537C131.879 8.36961 132.577 8.94971 133.06 9.66188L134.715 8.53812C133.999 7.48363 132.996 6.68039 131.751 6.11463L130.924 7.93537ZM133.068 9.67242C133.571 10.3927 133.836 11.1952 133.863 12.1053L135.862 12.0447C135.823 10.7548 135.438 9.57393 134.708 8.52758L133.068 9.67242ZM133.863 12.075V12.125H135.863V12.075H133.863ZM133.863 12.125C133.863 12.04 133.883 11.949 133.925 11.8653C133.965 11.7851 134.012 11.7373 134.037 11.7157L135.338 13.2343C135.639 12.9765 135.863 12.5963 135.863 12.125H133.863ZM134.048 11.7068C134.083 11.6771 134.131 11.6477 134.189 11.627C134.246 11.6064 134.299 11.6 134.338 11.6V13.6C134.699 13.6 135.043 13.4802 135.328 13.2432L134.048 11.7068ZM134.338 11.6H131.913V13.6H134.338V11.6ZM131.913 11.6C131.879 11.6 131.885 11.5961 131.918 11.6052C131.953 11.615 132.025 11.6417 132.103 11.7068L130.823 13.2432C131.177 13.5383 131.598 13.6 131.913 13.6V11.6ZM132.17 11.7679C132.194 11.7917 132.208 11.811 132.215 11.821C132.222 11.8309 132.223 11.8342 132.22 11.8278C132.216 11.8215 132.21 11.8083 132.202 11.7864C132.194 11.7646 132.184 11.7362 132.174 11.7003L130.251 12.2497C130.335 12.5443 130.478 12.9043 130.756 13.1821L132.17 11.7679ZM132.185 11.7398C131.901 10.5674 131.369 9.5774 130.473 8.97141L129.353 10.6286C129.689 10.8559 130.024 11.3159 130.241 12.2102L132.185 11.7398ZM130.488 8.98181C129.653 8.39523 128.615 8.15 127.463 8.15V10.15C128.344 10.15 128.939 10.3381 129.338 10.6182L130.488 8.98181ZM127.463 8.15C126.083 8.15 124.876 8.54109 124.012 9.4685C123.166 10.3768 122.793 11.6482 122.738 13.1125L124.737 13.1875C124.782 11.9851 125.08 11.2566 125.476 10.8315C125.854 10.4256 126.459 10.15 127.463 10.15V8.15ZM122.738 13.113C122.721 13.5824 122.713 14.2894 122.713 15.225H124.713C124.713 14.2939 124.721 13.6176 124.737 13.187L122.738 13.113ZM122.713 15.225C122.713 16.1614 122.721 16.8835 122.738 17.3845L124.737 17.3155C124.721 16.8498 124.713 16.1553 124.713 15.225H122.713ZM122.738 17.3875C122.793 18.8518 123.166 20.1232 124.012 21.0315C124.876 21.9589 126.083 22.35 127.463 22.35V20.35C126.459 20.35 125.854 20.0744 125.476 19.6685C125.08 19.2434 124.782 18.5149 124.737 17.3125L122.738 17.3875ZM127.463 22.35C128.595 22.35 129.618 22.1144 130.448 21.5536L129.328 19.8964C128.925 20.1689 128.33 20.35 127.463 20.35V22.35ZM130.452 21.5503C131.357 20.9314 131.899 19.9409 132.185 18.7602L130.241 18.2898C130.026 19.1758 129.685 19.6519 129.323 19.8997L130.452 21.5503ZM132.174 18.7997C132.184 18.7652 132.193 18.7396 132.2 18.7217C132.207 18.7036 132.211 18.6962 132.21 18.697C132.21 18.6976 132.203 18.7105 132.188 18.7309C132.172 18.7515 132.145 18.7834 132.103 18.8182L130.823 17.2818C130.484 17.5639 130.332 17.9668 130.251 18.2503L132.174 18.7997ZM132.17 18.7571C132.016 18.9108 131.867 18.9 131.913 18.9V16.9C131.559 16.9 131.109 16.9892 130.756 17.3429L132.17 18.7571ZM131.913 18.9H134.338V16.9H131.913V18.9ZM134.338 18.9C134.3 18.9 134.241 18.8933 134.173 18.866C134.103 18.8382 134.046 18.7979 134.006 18.7571L135.42 17.3429C135.12 17.0431 134.735 16.9 134.338 16.9V18.9ZM134.062 18.8093C134.015 18.7692 133.952 18.6974 133.909 18.5901C133.866 18.4821 133.861 18.383 133.869 18.3146L135.857 18.5354C135.911 18.0495 135.726 17.6014 135.363 17.2907L134.062 18.8093ZM133.863 18.3947C133.836 19.3048 133.571 20.1073 133.068 20.8276L134.708 21.9724C135.438 20.9261 135.823 19.7452 135.862 18.4553L133.863 18.3947ZM133.06 20.8381C132.575 21.5534 131.873 22.1437 130.913 22.5949L131.763 24.4051C133.002 23.8229 134.001 23.0132 134.715 21.9619L133.06 20.8381ZM130.924 22.5896C129.98 23.0187 128.835 23.25 127.463 23.25V25.25C129.057 25.25 130.495 24.9813 131.751 24.4104L130.924 22.5896ZM138.682 23.85L139.389 23.1429L139.389 23.1429L138.682 23.85ZM138.532 23.475L137.555 23.2581L137.532 23.3652V23.475H138.532ZM138.582 23.25L137.644 22.9013L137.62 22.9658L137.605 23.0331L138.582 23.25ZM144.582 7.125L143.653 6.75361L143.649 6.76488L143.644 6.77627L144.582 7.125ZM149.132 7.125L150.069 6.77627L150.065 6.76488L150.06 6.75361L149.132 7.125ZM155.132 23.25L156.108 23.0331L156.093 22.9658L156.069 22.9013L155.132 23.25ZM155.182 23.475H156.182V23.3652L156.158 23.2581L155.182 23.475ZM155.007 23.85L154.356 23.0907L154.327 23.1157L154.3 23.1429L155.007 23.85ZM151.707 23.525L150.772 23.8804L150.778 23.8968L150.785 23.9131L151.707 23.525ZM150.557 20.5L151.491 20.1446L151.246 19.5H150.557V20.5ZM143.157 20.5V19.5H142.467L142.222 20.1446L143.157 20.5ZM142.007 23.525L142.928 23.9131L142.935 23.8968L142.941 23.8804L142.007 23.525ZM144.032 17.6L143.093 17.2556L142.6 18.6H144.032V17.6ZM149.682 17.6V18.6H151.114L150.62 17.2556L149.682 17.6ZM146.857 9.9L147.795 9.55557L146.857 6.99668L145.918 9.55557L146.857 9.9ZM139.057 23C139.094 23 139.153 23.0067 139.222 23.034C139.291 23.0618 139.348 23.1021 139.389 23.1429L137.975 24.5571C138.274 24.8569 138.659 25 139.057 25V23ZM139.389 23.1429C139.43 23.1837 139.47 23.2403 139.498 23.3099C139.525 23.3782 139.532 23.4373 139.532 23.475H137.532C137.532 23.8724 137.675 24.2573 137.975 24.5571L139.389 23.1429ZM139.508 23.6919L139.558 23.4669L137.605 23.0331L137.555 23.2581L139.508 23.6919ZM139.519 23.5987L145.519 7.47373L143.644 6.77627L137.644 22.9013L139.519 23.5987ZM145.51 7.49639C145.524 7.4612 145.534 7.44865 145.533 7.44985C145.532 7.45053 145.53 7.45417 145.524 7.45958C145.518 7.46504 145.511 7.47133 145.502 7.47762C145.493 7.48392 145.484 7.48919 145.475 7.49335C145.466 7.49748 145.459 7.49981 145.455 7.501C145.447 7.50339 145.453 7.5 145.482 7.5V5.5C145.1 5.5 144.708 5.59404 144.361 5.83488C144.017 6.07394 143.792 6.40529 143.653 6.75361L145.51 7.49639ZM145.482 7.5H148.232V5.5H145.482V7.5ZM148.232 7.5C148.26 7.5 148.267 7.50339 148.258 7.501C148.254 7.49981 148.247 7.49748 148.238 7.49335C148.23 7.48919 148.22 7.48392 148.211 7.47762C148.202 7.47133 148.195 7.46504 148.189 7.45958C148.184 7.45417 148.181 7.45053 148.18 7.44985C148.179 7.44865 148.189 7.4612 148.203 7.49639L150.06 6.75361C149.921 6.40529 149.696 6.07394 149.352 5.83488C149.005 5.59404 148.613 5.5 148.232 5.5V7.5ZM148.194 7.47373L154.194 23.5987L156.069 22.9013L150.069 6.77627L148.194 7.47373ZM154.155 23.4669L154.205 23.6919L156.158 23.2581L156.108 23.0331L154.155 23.4669ZM154.182 23.475C154.182 23.4168 154.194 23.3395 154.232 23.2584C154.269 23.1778 154.318 23.1228 154.356 23.0907L155.657 24.6093C155.99 24.3246 156.182 23.925 156.182 23.475H154.182ZM154.3 23.1429C154.329 23.1132 154.379 23.0739 154.45 23.0434C154.523 23.0123 154.595 23 154.657 23V25C155.073 25 155.439 24.832 155.714 24.5571L154.3 23.1429ZM154.657 23H152.432V25H154.657V23ZM152.432 23C152.41 23 152.462 22.9965 152.536 23.0448C152.611 23.0939 152.633 23.1473 152.628 23.1369L150.785 23.9131C150.914 24.2193 151.123 24.5103 151.44 24.7177C151.755 24.9243 152.104 25 152.432 25V23ZM152.641 23.1696L151.491 20.1446L149.622 20.8554L150.772 23.8804L152.641 23.1696ZM150.557 19.5H143.157V21.5H150.557V19.5ZM142.222 20.1446L141.072 23.1696L142.941 23.8804L144.091 20.8554L142.222 20.1446ZM141.085 23.1369C141.081 23.1473 141.102 23.0939 141.177 23.0448C141.251 22.9965 141.304 23 141.282 23V25C141.61 25 141.958 24.9243 142.273 24.7177C142.59 24.5103 142.799 24.2193 142.928 23.9131L141.085 23.1369ZM141.282 23H139.057V25H141.282V23ZM144.032 18.6H149.682V16.6H144.032V18.6ZM150.62 17.2556L147.795 9.55557L145.918 10.2444L148.743 17.9444L150.62 17.2556ZM145.918 9.55557L143.093 17.2556L144.97 17.9444L147.795 10.2444L145.918 9.55557ZM160.165 23.825L159.458 24.5321L159.458 24.5321L160.165 23.825ZM160.14 6.675L159.433 5.96789L159.406 5.99505L159.381 6.02421L160.14 6.675ZM163.265 6.925L162.403 7.43202L162.413 7.44949L162.424 7.46652L163.265 6.925ZM170.415 18.025L169.574 18.5665L171.415 21.4241V18.025H170.415ZM170.565 6.675L169.858 5.9679L169.831 5.99505L169.806 6.02421L170.565 6.675ZM173.615 6.675L172.908 7.3821L172.908 7.38211L173.615 6.675ZM173.615 23.825L172.908 23.1179L172.908 23.1179L173.615 23.825ZM170.465 23.575L171.327 23.068L171.314 23.0467L171.301 23.0261L170.465 23.575ZM163.34 12.725L164.176 12.1761L162.34 9.3804V12.725H163.34ZM163.165 23.825L162.458 23.1179L162.431 23.145L162.406 23.1742L163.165 23.825ZM160.59 23C160.626 23 160.679 23.0068 160.74 23.0316C160.8 23.0564 160.844 23.0901 160.872 23.1179L159.458 24.5321C159.764 24.8384 160.161 25 160.59 25V23ZM160.872 23.1179C160.9 23.1457 160.934 23.1901 160.958 23.2505C160.983 23.3107 160.99 23.3643 160.99 23.4H158.99C158.99 23.8289 159.152 24.2258 159.458 24.5321L160.872 23.1179ZM160.99 23.4V7.125H158.99V23.4H160.99ZM160.99 7.125C160.99 7.12403 160.99 7.14947 160.976 7.19123C160.962 7.23532 160.936 7.28304 160.899 7.32579L159.381 6.02421C159.097 6.35571 158.99 6.75128 158.99 7.125H160.99ZM160.847 7.3821C160.81 7.41929 160.76 7.45338 160.702 7.47575C160.647 7.49733 160.605 7.5 160.59 7.5V5.5C160.174 5.5 159.759 5.64202 159.433 5.96789L160.847 7.3821ZM160.59 7.5H162.54V5.5H160.59V7.5ZM162.54 7.5C162.544 7.5 162.536 7.50044 162.518 7.49585C162.499 7.49108 162.476 7.48243 162.453 7.46895C162.403 7.43965 162.391 7.41172 162.403 7.43202L164.127 6.41798C163.789 5.84348 163.227 5.5 162.54 5.5V7.5ZM162.424 7.46652L169.574 18.5665L171.256 17.4835L164.106 6.38348L162.424 7.46652ZM171.415 18.025V7.125H169.415V18.025H171.415ZM171.415 7.125C171.415 7.12403 171.415 7.14947 171.401 7.19123C171.387 7.23532 171.361 7.28304 171.324 7.32579L169.806 6.02421C169.522 6.35571 169.415 6.75128 169.415 7.125H171.415ZM171.272 7.3821C171.235 7.41929 171.185 7.45338 171.127 7.47575C171.072 7.49733 171.03 7.5 171.015 7.5V5.5C170.599 5.5 170.184 5.64202 169.858 5.9679L171.272 7.3821ZM171.015 7.5H173.165V5.5H171.015V7.5ZM173.165 7.5C173.15 7.5 173.108 7.49733 173.053 7.47575C172.995 7.45338 172.945 7.41929 172.908 7.3821L174.322 5.9679C173.996 5.64202 173.581 5.5 173.165 5.5V7.5ZM172.908 7.38211C172.871 7.34492 172.837 7.29498 172.814 7.23745C172.793 7.18197 172.79 7.14023 172.79 7.125H174.79C174.79 6.70875 174.648 6.29376 174.322 5.96789L172.908 7.38211ZM172.79 7.125V23.375H174.79V7.125H172.79ZM172.79 23.375C172.79 23.3598 172.793 23.318 172.814 23.2626C172.837 23.205 172.871 23.1551 172.908 23.1179L174.322 24.5321C174.648 24.2062 174.79 23.7913 174.79 23.375H172.79ZM172.908 23.1179C172.936 23.0901 172.98 23.0564 173.041 23.0316C173.101 23.0068 173.154 23 173.19 23V25C173.619 25 174.016 24.8384 174.322 24.5321L172.908 23.1179ZM173.19 23H171.215V25H173.19V23ZM171.215 23C171.203 23 171.204 22.9987 171.217 23.0017C171.23 23.0048 171.249 23.0115 171.271 23.0237C171.292 23.036 171.309 23.0497 171.32 23.0609C171.33 23.0715 171.332 23.0759 171.327 23.068L169.603 24.082C169.953 24.6761 170.533 25 171.215 25V23ZM171.301 23.0261L164.176 12.1761L162.504 13.2739L169.629 24.1239L171.301 23.0261ZM162.34 12.725V23.4H164.34V12.725H162.34ZM162.34 23.4C162.34 23.3643 162.347 23.3107 162.372 23.2505C162.396 23.1901 162.43 23.1457 162.458 23.1179L163.872 24.5321C164.178 24.2258 164.34 23.8289 164.34 23.4H162.34ZM162.406 23.1742C162.458 23.113 162.527 23.0627 162.603 23.0316C162.674 23.0023 162.726 23 162.74 23V25C163.153 25 163.597 24.8572 163.924 24.4758L162.406 23.1742ZM162.74 23H160.59V25H162.74V23ZM190.079 22.525L189.402 23.2609L189.402 23.2609L190.079 22.525ZM188.354 6.675L187.647 5.96789L187.62 5.99505L187.595 6.02421L188.354 6.675ZM191.554 6.675L190.847 7.3821L190.847 7.38211L191.554 6.675ZM192.654 20.275L191.92 20.9541L191.929 20.9637L192.654 20.275ZM197.979 20.275L197.254 19.5862L197.245 19.596L197.979 20.275ZM199.104 6.675L198.397 5.96789L199.104 6.675ZM202.279 6.675L201.52 7.32579L201.545 7.35495L201.572 7.38211L202.279 6.675ZM200.579 22.525L199.902 21.7891L199.897 21.7936L200.579 22.525ZM195.354 23.25C193.253 23.25 191.767 22.7191 190.756 21.7891L189.402 23.2609C190.891 24.6309 192.922 25.25 195.354 25.25V23.25ZM190.756 21.7891C189.78 20.891 189.204 19.4619 189.204 17.3H187.204C187.204 19.8048 187.878 21.859 189.402 23.2609L190.756 21.7891ZM189.204 17.3V7.125H187.204V17.3H189.204ZM189.204 7.125C189.204 7.12403 189.204 7.14947 189.19 7.19123C189.176 7.23532 189.15 7.28304 189.114 7.32579L187.595 6.02421C187.311 6.35571 187.204 6.75128 187.204 7.125H189.204ZM189.061 7.3821C189.024 7.41929 188.974 7.45338 188.917 7.47575C188.861 7.49733 188.82 7.5 188.804 7.5V5.5C188.388 5.5 187.973 5.64202 187.647 5.96789L189.061 7.3821ZM188.804 7.5H191.104V5.5H188.804V7.5ZM191.104 7.5C191.089 7.5 191.047 7.49733 190.992 7.47575C190.934 7.45338 190.884 7.41929 190.847 7.3821L192.261 5.96789C191.936 5.64202 191.521 5.5 191.104 5.5V7.5ZM190.847 7.38211C190.81 7.34492 190.776 7.29498 190.754 7.23745C190.732 7.18197 190.729 7.14023 190.729 7.125H192.729C192.729 6.70875 192.587 6.29376 192.261 5.96789L190.847 7.38211ZM190.729 7.125V17.3H192.729V7.125H190.729ZM190.729 17.3C190.729 18.7563 191.069 20.0341 191.92 20.954L193.388 19.596C193.006 19.1826 192.729 18.477 192.729 17.3H190.729ZM191.929 20.9637C192.796 21.8766 193.978 22.275 195.329 22.275V20.275C194.38 20.275 193.779 20.0067 193.379 19.5863L191.929 20.9637ZM195.329 22.275C196.679 22.275 197.86 21.8769 198.713 20.954L197.245 19.596C196.866 20.0064 196.28 20.275 195.329 20.275V22.275ZM198.704 20.9637C199.578 20.0441 199.929 18.7625 199.929 17.3H197.929C197.929 18.4709 197.647 19.1725 197.254 19.5863L198.704 20.9637ZM199.929 17.3V7.125H197.929V17.3H199.929ZM199.929 7.125C199.929 7.14023 199.927 7.18197 199.905 7.23744C199.883 7.29498 199.849 7.34492 199.811 7.38211L198.397 5.96789C198.071 6.29376 197.929 6.70875 197.929 7.125H199.929ZM199.811 7.38211C199.774 7.41929 199.724 7.45338 199.667 7.47575C199.611 7.49733 199.57 7.5 199.554 7.5V5.5C199.138 5.5 198.723 5.64202 198.397 5.96789L199.811 7.38211ZM199.554 7.5H201.854V5.5H199.554V7.5ZM201.854 7.5C201.84 7.5 201.789 7.49775 201.717 7.46843C201.642 7.43728 201.572 7.38699 201.52 7.32579L203.039 6.02421C202.712 5.64279 202.268 5.5 201.854 5.5V7.5ZM201.572 7.38211C201.535 7.34492 201.501 7.29498 201.479 7.23744C201.457 7.18197 201.454 7.14023 201.454 7.125H203.454C203.454 6.70875 203.312 6.29376 202.986 5.96789L201.572 7.38211ZM201.454 7.125V17.3H203.454V7.125H201.454ZM201.454 17.3C201.454 19.4619 200.878 20.891 199.902 21.7891L201.256 23.2609C202.78 21.859 203.454 19.8048 203.454 17.3H201.454ZM199.897 21.7936C198.904 22.7199 197.438 23.25 195.354 23.25V25.25C197.771 25.25 199.788 24.6301 201.261 23.2564L199.897 21.7936ZM210.951 23.575L211.34 22.6536L211.34 22.6536L210.951 23.575ZM208.526 21.8L209.326 21.2L209.326 21.2L208.526 21.8ZM207.651 19.4H206.651V19.4192L206.652 19.4384L207.651 19.4ZM207.801 19.05L208.508 19.7571L208.535 19.7299L208.56 19.7008L207.801 19.05ZM210.901 19L210.32 19.8137L210.32 19.8137L210.901 19ZM211.226 19.35L212.185 19.0678L212.142 18.9219L212.058 18.7953L211.226 19.35ZM212.351 20.775L211.802 21.6108L211.813 21.6177L212.351 20.775ZM217.426 20.775L217.975 21.6107L217.981 21.6071L217.426 20.775ZM216.501 17.25L216.139 18.182L216.154 18.188L216.169 18.1935L216.501 17.25ZM213.801 16.425L214.056 15.4581L214.044 15.4549L214.032 15.452L213.801 16.425ZM209.476 14.575L208.834 15.3421L208.834 15.3421L209.476 14.575ZM208.901 8.7L209.716 9.27955L209.722 9.27106L208.901 8.7ZM211.176 6.9L210.778 5.98243L210.773 5.98491L211.176 6.9ZM218.226 6.975L217.791 7.87537L217.797 7.87813L218.226 6.975ZM220.526 8.8L219.708 9.37595L219.716 9.38658L219.724 9.39701L220.526 8.8ZM221.376 10.95H222.376V10.9268L222.375 10.9035L221.376 10.95ZM221.226 11.325L221.933 12.0321L221.96 12.005L221.985 11.9758L221.226 11.325ZM217.726 11.025L216.738 11.1794L216.758 11.3102L216.812 11.4311L217.726 11.025ZM216.751 9.7L216.208 10.5396L216.217 10.5453L216.225 10.5508L216.751 9.7ZM212.476 9.675L211.927 8.83895L211.921 8.84297L211.915 8.84708L212.476 9.675ZM212.101 12.325L211.354 12.9894L211.354 12.9894L212.101 12.325ZM213.351 13.125L212.97 14.0497L212.982 14.0545L212.994 14.0591L213.351 13.125ZM215.826 13.875L215.573 14.8425L215.59 14.8469L215.607 14.8507L215.826 13.875ZM219.351 15L218.918 15.9013L218.924 15.9044L219.351 15ZM221.301 16.575L220.466 17.1246L220.466 17.1246L221.301 16.575ZM221.026 21.825L220.226 21.225L220.224 21.2277L221.026 21.825ZM218.526 23.625L218.167 22.6916L218.162 22.6935L218.526 23.625ZM214.801 23.25C213.397 23.25 212.253 23.0389 211.34 22.6536L210.562 24.4964C211.783 25.0111 213.205 25.25 214.801 25.25V23.25ZM211.34 22.6536C210.394 22.2546 209.745 21.759 209.326 21.2L207.726 22.4C208.407 23.3077 209.375 23.9954 210.562 24.4964L211.34 22.6536ZM209.326 21.2C208.891 20.6195 208.675 20.0133 208.65 19.3616L206.652 19.4384C206.693 20.5201 207.061 21.5139 207.726 22.4L209.326 21.2ZM208.651 19.4C208.651 19.4618 208.639 19.534 208.608 19.6064C208.577 19.6776 208.538 19.7274 208.508 19.7571L207.094 18.3429C206.819 18.6178 206.651 18.9841 206.651 19.4H208.651ZM208.56 19.7008C208.528 19.7382 208.473 19.7874 208.393 19.8249C208.311 19.8628 208.234 19.875 208.176 19.875V17.875C207.726 17.875 207.326 18.0671 207.042 18.3992L208.56 19.7008ZM208.176 19.875H210.451V17.875H208.176V19.875ZM210.451 19.875C210.468 19.875 210.459 19.877 210.433 19.8698C210.406 19.862 210.364 19.8455 210.32 19.8137L211.482 18.1863C211.154 17.9519 210.785 17.875 210.451 17.875V19.875ZM210.32 19.8137C210.316 19.8111 210.345 19.8306 210.394 19.9047L212.058 18.7953C211.907 18.5694 211.719 18.3556 211.482 18.1863L210.32 19.8137ZM210.267 19.6322C210.512 20.466 211.058 21.1221 211.802 21.6107L212.9 19.9393C212.477 19.6612 212.273 19.3673 212.185 19.0678L210.267 19.6322ZM211.813 21.6177C212.63 22.1402 213.658 22.35 214.801 22.35V20.35C213.877 20.35 213.271 20.1764 212.889 19.9323L211.813 21.6177ZM214.801 22.35C216.045 22.35 217.152 22.1513 217.975 21.6107L216.877 19.9393C216.533 20.1653 215.89 20.35 214.801 20.35V22.35ZM217.981 21.6071C218.841 21.0338 219.326 20.1892 219.326 19.15H217.326C217.326 19.4775 217.211 19.7162 216.871 19.9429L217.981 21.6071ZM219.326 19.15C219.326 18.4526 219.083 17.8177 218.583 17.3179L217.169 18.7321C217.269 18.8323 217.326 18.9474 217.326 19.15H219.326ZM218.583 17.3179C218.135 16.8702 217.521 16.5486 216.832 16.3065L216.169 18.1935C216.714 18.3847 217.017 18.5798 217.169 18.7321L218.583 17.3179ZM216.863 16.318C216.21 16.0637 215.266 15.7773 214.056 15.4581L213.546 17.3919C214.736 17.706 215.592 17.9696 216.139 18.182L216.863 16.318ZM214.032 15.452C212.125 14.9996 210.86 14.4286 210.118 13.8079L208.834 15.3421C209.926 16.2547 211.543 16.9171 213.57 17.398L214.032 15.452ZM210.118 13.8079C209.474 13.2694 209.101 12.4773 209.101 11.275H207.101C207.101 12.9394 207.645 14.3473 208.834 15.3421L210.118 13.8079ZM209.101 11.275C209.101 10.5049 209.309 9.85141 209.716 9.27952L208.086 8.12048C207.426 9.04859 207.101 10.1117 207.101 11.275H209.101ZM209.722 9.27106C210.135 8.67686 210.738 8.18568 211.579 7.81509L210.773 5.98491C209.647 6.48099 208.733 7.18981 208.08 8.12893L209.722 9.27106ZM211.574 7.81756C212.425 7.44869 213.443 7.25 214.651 7.25V5.25C213.225 5.25 211.927 5.48465 210.778 5.98244L211.574 7.81756ZM214.651 7.25C215.92 7.25 216.956 7.47168 217.791 7.87535L218.661 6.07465C217.496 5.51165 216.149 5.25 214.651 5.25V7.25ZM217.797 7.87813C218.697 8.30614 219.313 8.81477 219.708 9.37595L221.343 8.22405C220.706 7.31856 219.788 6.61052 218.655 6.07186L217.797 7.87813ZM219.724 9.39701C220.167 9.9932 220.355 10.5227 220.377 10.9965L222.375 10.9035C222.33 9.94393 221.951 9.04013 221.328 8.20299L219.724 9.39701ZM220.376 10.95C220.376 10.8882 220.388 10.8268 220.41 10.7724C220.431 10.7198 220.455 10.6875 220.467 10.6742L221.985 11.9758C222.215 11.7072 222.376 11.358 222.376 10.95H220.376ZM220.519 10.6179C220.56 10.577 220.616 10.5368 220.686 10.509C220.754 10.4817 220.813 10.475 220.851 10.475V12.475C221.248 12.475 221.633 12.3319 221.933 12.0321L220.519 10.6179ZM220.851 10.475H218.476V12.475H220.851V10.475ZM218.476 10.475C218.428 10.475 218.462 10.4655 218.528 10.505C218.56 10.5241 218.588 10.5482 218.609 10.5734C218.63 10.5978 218.638 10.6158 218.64 10.6189L216.812 11.4311C216.951 11.7444 217.176 12.0261 217.499 12.22C217.815 12.4094 218.158 12.475 218.476 12.475V10.475ZM218.714 10.8706C218.575 9.98263 218.028 9.31362 217.276 8.8492L216.225 10.5508C216.607 10.7864 216.71 11.0007 216.738 11.1794L218.714 10.8706ZM217.294 8.86043C216.531 8.36686 215.632 8.15 214.651 8.15V10.15C215.337 10.15 215.837 10.2998 216.208 10.5396L217.294 8.86043ZM214.651 8.15C213.62 8.15 212.68 8.3448 211.927 8.83895L213.025 10.511C213.338 10.3052 213.848 10.15 214.651 10.15V8.15ZM211.915 8.84708C211.102 9.39771 210.701 10.2285 210.701 11.2H212.701C212.701 10.8382 212.816 10.6523 213.037 10.5029L211.915 8.84708ZM210.701 11.2C210.701 11.8631 210.904 12.4838 211.354 12.9894L212.848 11.6606C212.764 11.5662 212.701 11.4369 212.701 11.2H210.701ZM211.354 12.9894C211.76 13.4469 212.33 13.7862 212.97 14.0497L213.732 12.2003C213.238 11.9972 212.975 11.8031 212.848 11.6606L211.354 12.9894ZM212.994 14.0591C213.612 14.2953 214.478 14.5562 215.573 14.8425L216.079 12.9075C215.007 12.6271 214.223 12.388 213.708 12.1909L212.994 14.0591ZM215.607 14.8507C217.054 15.1758 218.147 15.5307 218.918 15.9013L219.784 14.0987C218.822 13.636 217.565 13.2409 216.045 12.8993L215.607 14.8507ZM218.924 15.9044C219.689 16.2649 220.175 16.6833 220.466 17.1246L222.136 16.0254C221.593 15.2001 220.78 14.5684 219.778 14.0956L218.924 15.9044ZM220.466 17.1246C220.747 17.5527 220.926 18.1547 220.926 19H222.926C222.926 17.8787 222.688 16.864 222.136 16.0254L220.466 17.1246ZM220.926 19C220.926 19.8861 220.685 20.6128 220.226 21.225L221.826 22.425C222.567 21.4372 222.926 20.2806 222.926 19H220.926ZM220.224 21.2277C219.773 21.8329 219.108 22.3299 218.167 22.6917L218.885 24.5583C220.111 24.0867 221.112 23.3838 221.828 22.4223L220.224 21.2277ZM218.162 22.6935C217.235 23.0556 216.122 23.25 214.801 23.25V25.25C216.314 25.25 217.683 25.0278 218.89 24.5565L218.162 22.6935ZM227.44 23.825L226.733 24.5321L226.733 24.5321L227.44 23.825ZM227.415 6.675L226.708 5.96789L226.681 5.99505L226.656 6.02421L227.415 6.675ZM239.34 6.675L240.048 5.96789L239.34 6.675ZM239.34 9.25L239.991 10.0093L240.02 9.98426L240.048 9.95711L239.34 9.25ZM230.69 9.4V8.4H229.69V9.4H230.69ZM230.69 13.775H229.69V14.775H230.69V13.775ZM238.79 13.95L239.498 13.2429L239.498 13.2429L238.79 13.95ZM238.79 16.425L239.441 17.1843L239.47 17.1593L239.498 17.1321L238.79 16.425ZM230.69 16.575V15.575H229.69V16.575H230.69ZM230.69 21.1H229.69V22.1H230.69V21.1ZM239.54 21.275L238.833 21.9821L238.86 22.0093L238.89 22.0343L239.54 21.275ZM239.54 23.85L240.191 24.6093L240.22 24.5843L240.248 24.5571L239.54 23.85ZM227.865 23C227.901 23 227.955 23.0068 228.015 23.0316C228.075 23.0564 228.12 23.0901 228.148 23.1179L226.733 24.5321C227.04 24.8384 227.437 25 227.865 25V23ZM228.148 23.1179C228.175 23.1457 228.209 23.1901 228.234 23.2505C228.259 23.3107 228.265 23.3643 228.265 23.4H226.265C226.265 23.8289 226.427 24.2258 226.733 24.5321L228.148 23.1179ZM228.265 23.4V7.125H226.265V23.4H228.265ZM228.265 7.125C228.265 7.12403 228.266 7.14947 228.252 7.19123C228.237 7.23532 228.211 7.28304 228.175 7.32579L226.656 6.02421C226.372 6.35571 226.265 6.75128 226.265 7.125H228.265ZM228.123 7.3821C228.085 7.41929 228.035 7.45338 227.978 7.47575C227.922 7.49733 227.881 7.5 227.865 7.5V5.5C227.449 5.5 227.034 5.64202 226.708 5.96789L228.123 7.3821ZM227.865 7.5H238.89V5.5H227.865V7.5ZM238.89 7.5C238.875 7.5 238.833 7.49733 238.778 7.47575C238.72 7.45338 238.671 7.41929 238.633 7.38211L240.048 5.96789C239.722 5.64202 239.307 5.5 238.89 5.5V7.5ZM238.633 7.38211C238.596 7.34492 238.562 7.29498 238.54 7.23744C238.518 7.18197 238.515 7.14023 238.515 7.125H240.515C240.515 6.70875 240.373 6.29376 240.048 5.96789L238.633 7.38211ZM238.515 7.125V8.8H240.515V7.125H238.515ZM238.515 8.8C238.515 8.78477 238.518 8.74303 238.54 8.68755C238.562 8.63002 238.596 8.58008 238.633 8.54289L240.048 9.95711C240.373 9.63123 240.515 9.21625 240.515 8.8H238.515ZM238.69 8.49074C238.732 8.4541 238.78 8.42851 238.824 8.41382C238.866 8.3999 238.891 8.4 238.89 8.4V10.4C239.264 10.4 239.66 10.2934 239.991 10.0093L238.69 8.49074ZM238.89 8.4H230.69V10.4H238.89V8.4ZM229.69 9.4V13.775H231.69V9.4H229.69ZM230.69 14.775H238.34V12.775H230.69V14.775ZM238.34 14.775C238.325 14.775 238.283 14.7723 238.228 14.7508C238.17 14.7284 238.121 14.6943 238.083 14.6571L239.498 13.2429C239.172 12.917 238.757 12.775 238.34 12.775V14.775ZM238.083 14.6571C238.046 14.6199 238.012 14.57 237.99 14.5124C237.968 14.457 237.965 14.4152 237.965 14.4H239.965C239.965 13.9838 239.823 13.5688 239.498 13.2429L238.083 14.6571ZM237.965 14.4V15.975H239.965V14.4H237.965ZM237.965 15.975C237.965 15.9598 237.968 15.918 237.99 15.8626C238.012 15.805 238.046 15.7551 238.083 15.7179L239.498 17.1321C239.823 16.8062 239.965 16.3912 239.965 15.975H237.965ZM238.14 15.6657C238.182 15.6291 238.23 15.6035 238.274 15.5888C238.316 15.5749 238.341 15.575 238.34 15.575V17.575C238.714 17.575 239.11 17.4684 239.441 17.1843L238.14 15.6657ZM238.34 15.575H230.69V17.575H238.34V15.575ZM229.69 16.575V21.1H231.69V16.575H229.69ZM230.69 22.1H239.09V20.1H230.69V22.1ZM239.09 22.1C239.075 22.1 239.033 22.0973 238.978 22.0758C238.92 22.0534 238.871 22.0193 238.833 21.9821L240.248 20.5679C239.922 20.242 239.507 20.1 239.09 20.1V22.1ZM238.89 22.0343C238.828 21.9818 238.778 21.9126 238.747 21.837C238.718 21.7658 238.715 21.7138 238.715 21.7H240.715C240.715 21.2867 240.573 20.8427 240.191 20.5157L238.89 22.0343ZM238.715 21.7V23.4H240.715V21.7H238.715ZM238.715 23.4C238.715 23.3848 238.718 23.343 238.74 23.2876C238.762 23.23 238.796 23.1801 238.833 23.1429L240.248 24.5571C240.573 24.2312 240.715 23.8163 240.715 23.4H238.715ZM238.89 23.0907C238.932 23.0541 238.98 23.0285 239.024 23.0138C239.066 22.9999 239.091 23 239.09 23V25C239.464 25 239.86 24.8934 240.191 24.6093L238.89 23.0907ZM239.09 23H227.865V25H239.09V23ZM251.421 23.85L252.128 23.1429L252.128 23.1429L251.421 23.85ZM251.271 23.475L250.295 23.2581L250.271 23.3652V23.475H251.271ZM251.321 23.25L250.384 22.9013L250.36 22.9658L250.345 23.0331L251.321 23.25ZM257.321 7.125L256.392 6.75361L256.388 6.76488L256.384 6.77627L257.321 7.125ZM261.871 7.125L262.808 6.77627L262.804 6.76488L262.799 6.75361L261.871 7.125ZM267.871 23.25L268.847 23.0331L268.832 22.9658L268.808 22.9013L267.871 23.25ZM267.921 23.475H268.921V23.3652L268.897 23.2581L267.921 23.475ZM267.746 23.85L267.095 23.0907L267.066 23.1157L267.039 23.1429L267.746 23.85ZM264.446 23.525L263.511 23.8804L263.517 23.8968L263.524 23.9131L264.446 23.525ZM263.296 20.5L264.231 20.1446L263.986 19.5H263.296V20.5ZM255.896 20.5V19.5H255.206L254.961 20.1446L255.896 20.5ZM254.746 23.525L255.668 23.9131L255.674 23.8968L255.681 23.8804L254.746 23.525ZM256.771 17.6L255.832 17.2556L255.339 18.6H256.771V17.6ZM262.421 17.6V18.6H263.853L263.36 17.2556L262.421 17.6ZM259.596 9.9L260.535 9.55557L259.596 6.99668L258.657 9.55557L259.596 9.9ZM251.796 23C251.834 23 251.893 23.0067 251.961 23.034C252.031 23.0618 252.087 23.1021 252.128 23.1429L250.714 24.5571C251.014 24.8569 251.399 25 251.796 25V23ZM252.128 23.1429C252.169 23.1837 252.209 23.2403 252.237 23.3099C252.264 23.3782 252.271 23.4373 252.271 23.475H250.271C250.271 23.8724 250.414 24.2573 250.714 24.5571L252.128 23.1429ZM252.247 23.6919L252.297 23.4669L250.345 23.0331L250.295 23.2581L252.247 23.6919ZM252.258 23.5987L258.258 7.47373L256.384 6.77627L250.384 22.9013L252.258 23.5987ZM258.249 7.49639C258.263 7.4612 258.273 7.44865 258.272 7.44985C258.272 7.45053 258.269 7.45417 258.263 7.45958C258.258 7.46504 258.25 7.47133 258.241 7.47762C258.232 7.48392 258.223 7.48919 258.214 7.49335C258.205 7.49748 258.198 7.49981 258.194 7.501C258.186 7.50339 258.193 7.5 258.221 7.5V5.5C257.839 5.5 257.447 5.59404 257.101 5.83488C256.756 6.07394 256.532 6.40529 256.392 6.75361L258.249 7.49639ZM258.221 7.5H260.971V5.5H258.221V7.5ZM260.971 7.5C260.999 7.5 261.006 7.50339 260.998 7.501C260.993 7.49981 260.987 7.49748 260.978 7.49335C260.969 7.48919 260.96 7.48392 260.951 7.47762C260.941 7.47133 260.934 7.46504 260.928 7.45958C260.923 7.45417 260.92 7.45053 260.92 7.44985C260.919 7.44865 260.928 7.4612 260.942 7.49639L262.799 6.75361C262.66 6.40529 262.436 6.07394 262.091 5.83488C261.744 5.59404 261.353 5.5 260.971 5.5V7.5ZM260.934 7.47373L266.934 23.5987L268.808 22.9013L262.808 6.77627L260.934 7.47373ZM266.895 23.4669L266.945 23.6919L268.897 23.2581L268.847 23.0331L266.895 23.4669ZM266.921 23.475C266.921 23.4168 266.933 23.3395 266.971 23.2584C267.009 23.1778 267.058 23.1228 267.095 23.0907L268.397 24.6093C268.729 24.3246 268.921 23.925 268.921 23.475H266.921ZM267.039 23.1429C267.068 23.1132 267.118 23.0739 267.189 23.0434C267.262 23.0123 267.334 23 267.396 23V25C267.812 25 268.178 24.832 268.453 24.5571L267.039 23.1429ZM267.396 23H265.171V25H267.396V23ZM265.171 23C265.149 23 265.202 22.9965 265.275 23.0448C265.35 23.0939 265.372 23.1473 265.368 23.1369L263.524 23.9131C263.653 24.2193 263.863 24.5103 264.179 24.7177C264.494 24.9243 264.843 25 265.171 25V23ZM265.381 23.1696L264.231 20.1446L262.361 20.8554L263.511 23.8804L265.381 23.1696ZM263.296 19.5H255.896V21.5H263.296V19.5ZM254.961 20.1446L253.811 23.1696L255.681 23.8804L256.831 20.8554L254.961 20.1446ZM253.824 23.1369C253.82 23.1473 253.842 23.0939 253.917 23.0448C253.99 22.9965 254.043 23 254.021 23V25C254.349 25 254.697 24.9243 255.013 24.7177C255.329 24.5103 255.539 24.2193 255.668 23.9131L253.824 23.1369ZM254.021 23H251.796V25H254.021V23ZM256.771 18.6H262.421V16.6H256.771V18.6ZM263.36 17.2556L260.535 9.55557L258.657 10.2444L261.482 17.9444L263.36 17.2556ZM258.657 9.55557L255.832 17.2556L257.71 17.9444L260.535 10.2444L258.657 9.55557ZM272.904 23.825L272.197 24.5321L272.197 24.5321L272.904 23.825ZM272.879 6.675L272.172 5.96789L272.145 5.99505L272.12 6.02421L272.879 6.675ZM284.604 7.925L283.967 8.69598L283.973 8.70044L284.604 7.925ZM285.479 15.05L286.293 15.6313L286.299 15.6235L285.479 15.05ZM283.029 16.825L282.7 15.8809L281.567 16.2764L282.16 17.3193L283.029 16.825ZM286.654 23.2L287.549 22.7528L287.537 22.7289L287.524 22.7057L286.654 23.2ZM286.554 23.85L285.904 23.0907L285.874 23.1157L285.847 23.1429L286.554 23.85ZM283.279 23.825L282.615 24.5724L282.639 24.5942L282.665 24.6144L283.279 23.825ZM282.879 23.325L281.999 23.8002L282.007 23.8147L282.016 23.8289L282.879 23.325ZM279.679 17.4L280.559 16.9248L280.276 16.4H279.679V17.4ZM276.254 17.4V16.4H275.254V17.4H276.254ZM281.979 13.9L282.634 14.6557L282.641 14.6496L282.648 14.6433L281.979 13.9ZM281.979 10L281.297 10.7311L281.304 10.7372L281.31 10.7433L281.979 10ZM276.254 9.3V8.3H275.254V9.3H276.254ZM276.254 14.55H275.254V15.55H276.254V14.55ZM273.329 23C273.365 23 273.419 23.0068 273.479 23.0316C273.539 23.0564 273.584 23.0901 273.611 23.1179L272.197 24.5321C272.504 24.8384 272.9 25 273.329 25V23ZM273.611 23.1179C273.639 23.1457 273.673 23.1901 273.698 23.2505C273.723 23.3107 273.729 23.3643 273.729 23.4H271.729C271.729 23.8289 271.891 24.2258 272.197 24.5321L273.611 23.1179ZM273.729 23.4V7.125H271.729V23.4H273.729ZM273.729 7.125C273.729 7.12403 273.729 7.14947 273.715 7.19123C273.701 7.23532 273.675 7.28304 273.639 7.32579L272.12 6.02421C271.836 6.35571 271.729 6.75128 271.729 7.125H273.729ZM273.586 7.3821C273.549 7.41929 273.499 7.45338 273.442 7.47575C273.386 7.49733 273.345 7.5 273.329 7.5V5.5C272.913 5.5 272.498 5.64202 272.172 5.96789L273.586 7.3821ZM273.329 7.5H279.804V5.5H273.329V7.5ZM279.804 7.5C281.708 7.5 283.054 7.94107 283.967 8.69596L285.241 7.15404C283.855 6.00893 282 5.5 279.804 5.5V7.5ZM283.973 8.70044C284.867 9.4284 285.354 10.4709 285.354 11.975H287.354C287.354 9.97913 286.675 8.3216 285.236 7.14956L283.973 8.70044ZM285.354 11.975C285.354 13.0276 285.104 13.8421 284.66 14.4765L286.299 15.6235C287.021 14.5913 287.354 13.3558 287.354 11.975H285.354ZM284.666 14.4688C284.215 15.0993 283.577 15.5746 282.7 15.8809L283.359 17.7691C284.582 17.3421 285.577 16.634 286.293 15.6312L284.666 14.4688ZM282.16 17.3193L285.785 23.6943L287.524 22.7057L283.899 16.3307L282.16 17.3193ZM285.76 23.6472C285.763 23.6536 285.729 23.5906 285.729 23.475H287.729C287.729 23.1927 287.646 22.9464 287.549 22.7528L285.76 23.6472ZM285.729 23.475C285.729 23.4168 285.741 23.3395 285.779 23.2584C285.817 23.1778 285.866 23.1228 285.904 23.0907L287.205 24.6093C287.537 24.3246 287.729 23.925 287.729 23.475H285.729ZM285.847 23.1429C285.877 23.1132 285.927 23.0739 285.998 23.0434C286.07 23.0123 286.142 23 286.204 23V25C286.62 25 286.986 24.832 287.261 24.5571L285.847 23.1429ZM286.204 23H283.904V25H286.204V23ZM283.904 23C283.874 23 283.852 22.9983 283.837 22.9965C283.822 22.9947 283.817 22.993 283.818 22.9933C283.819 22.9936 283.828 22.9962 283.842 23.003C283.856 23.0099 283.874 23.0204 283.893 23.0356L282.665 24.6144C283.049 24.9131 283.503 25 283.904 25V23ZM283.944 23.0776C283.884 23.0242 283.815 22.9437 283.743 22.8211L282.016 23.8289C282.177 24.1063 282.375 24.3591 282.615 24.5724L283.944 23.0776ZM283.759 22.8498L280.559 16.9248L278.799 17.8752L281.999 23.8002L283.759 22.8498ZM279.679 16.4H276.254V18.4H279.679V16.4ZM275.254 17.4V23.4H277.254V17.4H275.254ZM275.254 23.4C275.254 23.3643 275.261 23.3107 275.286 23.2505C275.311 23.1901 275.344 23.1457 275.372 23.1179L276.786 24.5321C277.093 24.2258 277.254 23.8289 277.254 23.4H275.254ZM275.372 23.1179C275.409 23.0807 275.459 23.0466 275.517 23.0242C275.572 23.0027 275.614 23 275.629 23V25C276.046 25 276.461 24.858 276.786 24.5321L275.372 23.1179ZM275.629 23H273.329V25H275.629V23ZM279.729 15.55C280.851 15.55 281.879 15.31 282.634 14.6557L281.324 13.1443C281.079 13.3567 280.607 13.55 279.729 13.55V15.55ZM282.648 14.6433C283.412 13.956 283.729 13.0035 283.729 11.95H281.729C281.729 12.5965 281.547 12.944 281.31 13.1567L282.648 14.6433ZM283.729 11.95C283.729 10.8965 283.412 9.94398 282.648 9.25671L281.31 10.7433C281.547 10.956 281.729 11.3035 281.729 11.95H283.729ZM282.662 9.26894C281.906 8.56407 280.867 8.3 279.729 8.3V10.3C280.592 10.3 281.052 10.5026 281.297 10.7311L282.662 9.26894ZM279.729 8.3H276.254V10.3H279.729V8.3ZM275.254 9.3V14.55H277.254V9.3H275.254ZM276.254 15.55H279.729V13.55H276.254V15.55ZM292.25 23.825L291.543 24.5321L291.543 24.5321L292.25 23.825ZM292.225 6.675L291.518 5.96789L291.491 5.99505L291.466 6.02421L292.225 6.675ZM303.95 7.925L303.313 8.69598L303.319 8.70044L303.95 7.925ZM304.825 15.05L305.639 15.6313L305.644 15.6235L304.825 15.05ZM302.375 16.825L302.045 15.8809L300.913 16.2764L301.506 17.3193L302.375 16.825ZM306 23.2L306.894 22.7528L306.882 22.7289L306.869 22.7057L306 23.2ZM305.9 23.85L305.249 23.0907L305.22 23.1157L305.193 23.1429L305.9 23.85ZM302.625 23.825L301.961 24.5724L301.985 24.5942L302.011 24.6144L302.625 23.825ZM302.225 23.325L301.345 23.8002L301.353 23.8147L301.361 23.8289L302.225 23.325ZM299.025 17.4L299.905 16.9248L299.621 16.4H299.025V17.4ZM295.6 17.4V16.4H294.6V17.4H295.6ZM301.325 13.9L301.98 14.6557L301.987 14.6496L301.994 14.6433L301.325 13.9ZM301.325 10L300.643 10.7311L300.649 10.7372L300.656 10.7433L301.325 10ZM295.6 9.3V8.3H294.6V9.3H295.6ZM295.6 14.55H294.6V15.55H295.6V14.55ZM292.675 23C292.711 23 292.764 23.0068 292.824 23.0316C292.885 23.0564 292.929 23.0901 292.957 23.1179L291.543 24.5321C291.849 24.8384 292.246 25 292.675 25V23ZM292.957 23.1179C292.985 23.1457 293.019 23.1901 293.043 23.2505C293.068 23.3107 293.075 23.3643 293.075 23.4H291.075C291.075 23.8289 291.237 24.2258 291.543 24.5321L292.957 23.1179ZM293.075 23.4V7.125H291.075V23.4H293.075ZM293.075 7.125C293.075 7.12403 293.075 7.14947 293.061 7.19123C293.046 7.23532 293.021 7.28304 292.984 7.32579L291.466 6.02421C291.182 6.35571 291.075 6.75128 291.075 7.125H293.075ZM292.932 7.3821C292.895 7.41929 292.845 7.45338 292.787 7.47575C292.732 7.49733 292.69 7.5 292.675 7.5V5.5C292.259 5.5 291.844 5.64202 291.518 5.96789L292.932 7.3821ZM292.675 7.5H299.15V5.5H292.675V7.5ZM299.15 7.5C301.054 7.5 302.399 7.94107 303.313 8.69596L304.587 7.15404C303.201 6.00893 301.346 5.5 299.15 5.5V7.5ZM303.319 8.70044C304.213 9.4284 304.7 10.4709 304.7 11.975H306.7C306.7 9.97913 306.021 8.3216 304.581 7.14956L303.319 8.70044ZM304.7 11.975C304.7 13.0276 304.45 13.8421 304.006 14.4765L305.644 15.6235C306.367 14.5913 306.7 13.3558 306.7 11.975H304.7ZM304.011 14.4688C303.561 15.0993 302.922 15.5746 302.045 15.8809L302.705 17.7691C303.928 17.3421 304.922 16.634 305.639 15.6312L304.011 14.4688ZM301.506 17.3193L305.131 23.6943L306.869 22.7057L303.244 16.3307L301.506 17.3193ZM305.106 23.6472C305.109 23.6536 305.075 23.5906 305.075 23.475H307.075C307.075 23.1927 306.991 22.9464 306.894 22.7528L305.106 23.6472ZM305.075 23.475C305.075 23.4168 305.087 23.3395 305.125 23.2584C305.163 23.1778 305.212 23.1228 305.249 23.0907L306.551 24.6093C306.883 24.3246 307.075 23.925 307.075 23.475H305.075ZM305.193 23.1429C305.223 23.1132 305.272 23.0739 305.344 23.0434C305.416 23.0123 305.488 23 305.55 23V25C305.966 25 306.332 24.832 306.607 24.5571L305.193 23.1429ZM305.55 23H303.25V25H305.55V23ZM303.25 23C303.22 23 303.197 22.9983 303.183 22.9965C303.168 22.9947 303.162 22.993 303.163 22.9933C303.165 22.9936 303.173 22.9962 303.187 23.003C303.201 23.0099 303.219 23.0204 303.239 23.0356L302.011 24.6144C302.395 24.9131 302.849 25 303.25 25V23ZM303.289 23.0776C303.229 23.0242 303.16 22.9437 303.089 22.8211L301.361 23.8289C301.523 24.1063 301.721 24.3591 301.961 24.5724L303.289 23.0776ZM303.105 22.8498L299.905 16.9248L298.145 17.8752L301.345 23.8002L303.105 22.8498ZM299.025 16.4H295.6V18.4H299.025V16.4ZM294.6 17.4V23.4H296.6V17.4H294.6ZM294.6 23.4C294.6 23.3643 294.607 23.3107 294.632 23.2505C294.656 23.1901 294.69 23.1457 294.718 23.1179L296.132 24.5321C296.438 24.2258 296.6 23.8289 296.6 23.4H294.6ZM294.718 23.1179C294.755 23.0807 294.805 23.0466 294.863 23.0242C294.918 23.0027 294.96 23 294.975 23V25C295.391 25 295.806 24.858 296.132 24.5321L294.718 23.1179ZM294.975 23H292.675V25H294.975V23ZM299.075 15.55C300.197 15.55 301.225 15.31 301.98 14.6557L300.67 13.1443C300.425 13.3567 299.953 13.55 299.075 13.55V15.55ZM301.994 14.6433C302.758 13.956 303.075 13.0035 303.075 11.95H301.075C301.075 12.5965 300.892 12.944 300.656 13.1567L301.994 14.6433ZM303.075 11.95C303.075 10.8965 302.758 9.94398 301.994 9.25671L300.656 10.7433C300.892 10.956 301.075 11.3035 301.075 11.95H303.075ZM302.007 9.26894C301.252 8.56407 300.213 8.3 299.075 8.3V10.3C299.937 10.3 300.398 10.5026 300.643 10.7311L302.007 9.26894ZM299.075 8.3H295.6V10.3H299.075V8.3ZM294.6 9.3V14.55H296.6V9.3H294.6ZM295.6 15.55H299.075V13.55H295.6V15.55ZM312.797 22.525L312.125 23.2654L312.797 22.525ZM310.797 17.4L311.796 17.3706L311.796 17.3655L310.797 17.4ZM310.797 13.125L311.796 13.1595L311.796 13.1551L310.797 13.125ZM312.847 8.025L312.174 7.28549L312.174 7.28549L312.847 8.025ZM323.372 8.025L322.699 8.76452L322.703 8.76876L323.372 8.025ZM325.447 13.125L324.447 13.1551L324.447 13.1595L325.447 13.125ZM325.447 17.4L324.447 17.3655L324.447 17.3706L325.447 17.4ZM323.422 22.525L322.755 21.7802L322.75 21.7846L323.422 22.525ZM320.772 20.35L320.056 19.6519L320.056 19.6519L320.772 20.35ZM321.822 17.275L322.821 17.3111L322.821 17.3083L321.822 17.275ZM321.822 13.225L322.821 13.1905L322.821 13.1884L321.822 13.225ZM320.747 10.175L320.031 10.8734L320.04 10.8821L320.747 10.175ZM315.472 10.175L316.179 10.8822L316.188 10.8733L315.472 10.175ZM314.422 13.225L315.421 13.2595L315.422 13.2494L314.422 13.225ZM314.422 17.275L315.422 17.2506L315.421 17.2417L314.422 17.275ZM315.447 20.35L314.722 21.0392L314.731 21.0483L314.74 21.0571L315.447 20.35ZM318.122 23.25C316.002 23.25 314.497 22.7182 313.469 21.7846L312.125 23.2654C313.63 24.6318 315.675 25.25 318.122 25.25V23.25ZM313.469 21.7846C312.463 20.8711 311.858 19.4577 311.796 17.3706L309.797 17.4294C309.869 19.8756 310.598 21.8789 312.125 23.2654L313.469 21.7846ZM311.796 17.3655C311.78 16.8998 311.772 16.2053 311.772 15.275H309.772C309.772 16.2114 309.78 16.9335 309.797 17.4345L311.796 17.3655ZM311.772 15.275C311.772 14.3278 311.78 13.6251 311.796 13.1595L309.797 13.0905C309.78 13.5916 309.772 14.3222 309.772 15.275H311.772ZM311.796 13.1551C311.857 11.1343 312.47 9.72037 313.52 8.76451L312.174 7.28549C310.624 8.69629 309.87 10.6823 309.797 13.0949L311.796 13.1551ZM313.52 8.76451C314.591 7.78924 316.087 7.25 318.122 7.25V5.25C315.724 5.25 313.702 5.89409 312.174 7.28549L313.52 8.76451ZM318.122 7.25C320.138 7.25 321.626 7.78802 322.699 8.76451L324.045 7.28549C322.518 5.89531 320.506 5.25 318.122 5.25V7.25ZM322.703 8.76876C323.768 9.72555 324.387 11.1381 324.447 13.1551L326.446 13.0949C326.374 10.6785 325.609 8.69111 324.04 7.28124L322.703 8.76876ZM324.447 13.1595C324.481 14.1241 324.497 14.8264 324.497 15.275H326.497C326.497 14.7902 326.48 14.0593 326.446 13.0905L324.447 13.1595ZM324.497 15.275C324.497 15.7067 324.481 16.4004 324.447 17.3655L326.446 17.4345C326.48 16.4662 326.497 15.7433 326.497 15.275H324.497ZM324.447 17.3706C324.386 19.4539 323.775 20.8659 322.755 21.7803L324.089 23.2697C325.635 21.8841 326.374 19.8794 326.446 17.4294L324.447 17.3706ZM322.75 21.7846C321.72 22.7194 320.222 23.25 318.122 23.25V25.25C320.555 25.25 322.59 24.6306 324.094 23.2654L322.75 21.7846ZM318.122 22.35C319.45 22.35 320.613 21.9456 321.488 21.0481L320.056 19.6519C319.631 20.0878 319.027 20.35 318.122 20.35V22.35ZM321.488 21.0481C322.379 20.1341 322.767 18.8246 322.821 17.3111L320.823 17.2389C320.777 18.4921 320.465 19.2326 320.056 19.6519L321.488 21.0481ZM322.821 17.3083C322.855 16.3105 322.872 15.6192 322.872 15.25H320.872C320.872 15.5808 320.856 16.2395 320.822 17.2417L322.821 17.3083ZM322.872 15.25C322.872 14.8474 322.855 14.1566 322.821 13.1905L320.822 13.2595C320.856 14.2267 320.872 14.8859 320.872 15.25H322.872ZM322.821 13.1884C322.766 11.682 322.366 10.3794 321.454 9.46789L320.04 10.8821C320.462 11.3039 320.778 12.0347 320.823 13.2616L322.821 13.1884ZM321.463 9.47668C320.582 8.57376 319.435 8.15 318.122 8.15V10.15C318.975 10.15 319.579 10.4096 320.031 10.8733L321.463 9.47668ZM318.122 8.15C316.797 8.15 315.64 8.57067 314.756 9.47668L316.188 10.8733C316.637 10.4127 317.247 10.15 318.122 10.15V8.15ZM314.765 9.46789C313.849 10.3837 313.459 11.6921 313.422 13.2006L315.422 13.2494C315.451 12.0246 315.761 11.2996 316.179 10.8821L314.765 9.46789ZM313.422 13.1905C313.405 13.6909 313.397 14.3793 313.397 15.25H315.397C315.397 14.3874 315.405 13.7257 315.421 13.2595L313.422 13.1905ZM313.397 15.25C313.397 16.1046 313.405 16.7922 313.422 17.3083L315.421 17.2417C315.405 16.7578 315.397 16.0954 315.397 15.25H313.397ZM313.422 17.2994C313.459 18.804 313.838 20.1097 314.722 21.0392L316.171 19.6608C315.756 19.2236 315.452 18.4793 315.422 17.2506L313.422 17.2994ZM314.74 21.0571C315.628 21.9455 316.793 22.35 318.122 22.35V20.35C317.218 20.35 316.599 20.0879 316.154 19.6429L314.74 21.0571ZM333.034 23.25L332.051 23.431L332.055 23.4543L332.061 23.4772L333.034 23.25ZM330.084 7.225L329.092 7.34903L329.096 7.37767L329.101 7.40605L330.084 7.225ZM330.059 7.025H329.059V7.08726L329.067 7.14903L330.059 7.025ZM330.209 6.65L330.916 7.35711L330.916 7.3571L330.209 6.65ZM333.309 6.625L332.669 7.39322L332.71 7.42742L332.755 7.45705L333.309 6.625ZM333.509 7L332.526 7.17889L332.526 7.18138L333.509 7ZM335.584 18.25L334.601 18.4314L336.54 18.5434L335.584 18.25ZM337.809 11L336.881 10.6286L336.866 10.667L336.853 10.7066L337.809 11ZM340.534 10.575L339.827 11.2821L339.851 11.3057L339.876 11.3276L340.534 10.575ZM340.809 11L339.852 11.2874L339.854 11.2964L340.809 11ZM343.059 18.25L342.104 18.5464L344.043 18.4293L343.059 18.25ZM345.109 7L346.093 7.17927L346.096 7.16384L346.098 7.14834L345.109 7ZM348.409 6.65L347.702 7.3571L347.702 7.35711L348.409 6.65ZM348.534 7.225L347.586 6.90876L347.564 6.97514L347.551 7.04395L348.534 7.225ZM345.584 23.25L344.601 23.069L344.597 23.0887L344.594 23.1086L345.584 23.25ZM345.284 23.8L344.66 23.0191L344.639 23.0353L344.62 23.0526L345.284 23.8ZM342.409 23.825L341.745 24.5724L341.77 24.5942L341.795 24.6144L342.409 23.825ZM342.109 23.375L343.067 23.0877L343.062 23.0714L343.057 23.0553L342.109 23.375ZM339.309 15.075L340.257 14.7553L339.309 11.9466L338.362 14.7553L339.309 15.075ZM336.509 23.375L335.562 23.0553L335.559 23.0628L335.557 23.0702L336.509 23.375ZM333.934 23C333.899 23 333.894 22.9954 333.91 23.0005C333.918 23.003 333.93 23.0077 333.945 23.0154C333.959 23.0232 333.973 23.0329 333.987 23.0443C334.016 23.0682 334.028 23.089 334.03 23.0925C334.031 23.0939 334.02 23.0746 334.008 23.0228L332.061 23.4772C332.153 23.8725 332.344 24.2783 332.707 24.5807C333.076 24.8885 333.516 25 333.934 25V23ZM334.018 23.069L331.068 7.04395L329.101 7.40605L332.051 23.431L334.018 23.069ZM331.077 7.10097L331.052 6.90097L329.067 7.14903L329.092 7.34903L331.077 7.10097ZM331.059 7.025C331.059 7.06272 331.053 7.12176 331.025 7.19014C330.998 7.25969 330.957 7.31627 330.916 7.35711L329.502 5.94289C329.202 6.24269 329.059 6.62764 329.059 7.025H331.059ZM330.916 7.3571C330.876 7.39794 330.819 7.43816 330.75 7.46597C330.681 7.49333 330.622 7.5 330.584 7.5V5.5C330.187 5.5 329.802 5.6431 329.502 5.9429L330.916 7.3571ZM330.584 7.5H332.834V5.5H330.584V7.5ZM332.834 7.5C332.883 7.5 332.887 7.50508 332.861 7.49832C332.834 7.49122 332.757 7.46618 332.669 7.39322L333.95 5.85678C333.584 5.55221 333.142 5.5 332.834 5.5V7.5ZM332.755 7.45705C332.645 7.3837 332.582 7.29647 332.552 7.23934C332.524 7.18683 332.522 7.15894 332.526 7.17889L334.493 6.82111C334.438 6.51489 334.288 6.07552 333.864 5.79295L332.755 7.45705ZM332.526 7.18138L334.601 18.4314L336.568 18.0686L334.493 6.81861L332.526 7.18138ZM336.54 18.5434L338.765 11.2934L336.853 10.7066L334.628 17.9566L336.54 18.5434ZM338.738 11.3714C338.774 11.2821 338.789 11.2944 338.744 11.3283C338.722 11.3453 338.695 11.3591 338.669 11.3675C338.643 11.3755 338.63 11.375 338.634 11.375V9.375C338.25 9.375 337.867 9.48371 337.537 9.73416C337.217 9.97643 337.012 10.3012 336.881 10.6286L338.738 11.3714ZM338.634 11.375H340.009V9.375H338.634V11.375ZM340.009 11.375C340.015 11.375 339.99 11.3757 339.947 11.3595C339.902 11.3423 339.86 11.3144 339.827 11.2821L341.241 9.86789C340.892 9.51873 340.448 9.375 340.009 9.375V11.375ZM339.876 11.3276C339.876 11.3279 339.871 11.3228 339.864 11.312C339.856 11.3011 339.853 11.2916 339.852 11.2873L341.767 10.7127C341.662 10.3624 341.465 10.0606 341.193 9.82242L339.876 11.3276ZM339.854 11.2964L342.104 18.5464L344.014 17.9536L341.764 10.7036L339.854 11.2964ZM344.043 18.4293L346.093 7.17927L344.126 6.82073L342.076 18.0707L344.043 18.4293ZM346.098 7.14834C346.096 7.16563 346.086 7.21341 346.051 7.27426C346.015 7.33814 345.963 7.3956 345.903 7.43873C345.789 7.52019 345.719 7.5 345.809 7.5V5.5C345.483 5.5 345.088 5.56314 344.741 5.81127C344.365 6.07963 344.178 6.46803 344.12 6.85166L346.098 7.14834ZM345.809 7.5H348.059V5.5H345.809V7.5ZM348.059 7.5C347.998 7.5 347.925 7.48767 347.853 7.45664C347.782 7.42612 347.732 7.38681 347.702 7.3571L349.116 5.9429C348.842 5.66798 348.475 5.5 348.059 5.5V7.5ZM347.702 7.35711C347.661 7.31627 347.621 7.25969 347.593 7.19014C347.566 7.12176 347.559 7.06272 347.559 7.025H349.559C349.559 6.62764 349.416 6.24268 349.116 5.94289L347.702 7.35711ZM347.559 7.025C347.559 7.0346 347.559 7.02965 347.561 7.01346C347.563 6.99831 347.568 6.96052 347.586 6.90876L349.483 7.54124C349.548 7.34774 349.559 7.16095 349.559 7.025H347.559ZM347.551 7.04395L344.601 23.069L346.568 23.431L349.518 7.40605L347.551 7.04395ZM344.594 23.1086C344.592 23.1221 344.592 23.1095 344.606 23.0836C344.621 23.0562 344.642 23.0335 344.66 23.0191L345.909 24.5809C346.296 24.2715 346.509 23.8481 346.574 23.3914L344.594 23.1086ZM344.62 23.0526C344.634 23.0397 344.65 23.0285 344.666 23.0193C344.682 23.0101 344.696 23.0045 344.706 23.0013C344.725 22.995 344.721 23 344.684 23V25C345.117 25 345.574 24.8807 345.949 24.5474L344.62 23.0526ZM344.684 23H342.984V25H344.684V23ZM342.984 23C342.951 23 342.944 22.9957 342.957 22.9996C342.963 23.0015 342.973 23.0052 342.986 23.0115C342.998 23.0179 343.011 23.026 343.023 23.0356L341.795 24.6144C342.158 24.8963 342.581 25 342.984 25V23ZM343.074 23.0776C343.056 23.0614 343.051 23.0541 343.054 23.0578C343.055 23.0595 343.057 23.0632 343.06 23.0688C343.063 23.0744 343.065 23.0808 343.067 23.0877L341.152 23.6623C341.263 24.0325 341.478 24.3352 341.745 24.5724L343.074 23.0776ZM343.057 23.0553L340.257 14.7553L338.362 15.3946L341.162 23.6947L343.057 23.0553ZM338.362 14.7553L335.562 23.0553L337.457 23.6947L340.257 15.3946L338.362 14.7553ZM335.557 23.0702C335.548 23.097 335.544 23.0987 335.553 23.0861C335.562 23.072 335.581 23.0502 335.609 23.03C335.637 23.01 335.661 23.0011 335.672 22.9982C335.68 22.9958 335.67 23 335.634 23V25C336.014 25 336.417 24.9106 336.772 24.6575C337.129 24.4025 337.344 24.0471 337.462 23.6798L335.557 23.0702ZM335.634 23H333.934V25H335.634V23ZM356.073 23.575L356.462 22.6536L356.462 22.6536L356.073 23.575ZM353.648 21.8L354.448 21.2L354.448 21.2L353.648 21.8ZM352.773 19.4H351.773V19.4192L351.774 19.4384L352.773 19.4ZM352.923 19.05L353.63 19.7571L353.657 19.7299L353.682 19.7008L352.923 19.05ZM356.023 19L355.442 19.8137L355.442 19.8137L356.023 19ZM356.348 19.35L357.307 19.0678L357.264 18.9219L357.18 18.7953L356.348 19.35ZM357.473 20.775L356.924 21.6108L356.935 21.6177L357.473 20.775ZM362.548 20.775L363.097 21.6107L363.103 21.6071L362.548 20.775ZM361.623 17.25L361.261 18.182L361.276 18.188L361.292 18.1935L361.623 17.25ZM358.923 16.425L359.178 15.4581L359.166 15.4549L359.154 15.452L358.923 16.425ZM354.598 14.575L353.956 15.3421L353.956 15.3421L354.598 14.575ZM354.023 8.7L354.838 9.27955L354.844 9.27106L354.023 8.7ZM356.298 6.9L355.9 5.98243L355.895 5.98491L356.298 6.9ZM363.348 6.975L362.913 7.87537L362.919 7.87813L363.348 6.975ZM365.648 8.8L364.831 9.37595L364.838 9.38658L364.846 9.39701L365.648 8.8ZM366.498 10.95H367.498V10.9268L367.497 10.9035L366.498 10.95ZM366.348 11.325L367.055 12.0321L367.082 12.005L367.107 11.9758L366.348 11.325ZM362.848 11.025L361.86 11.1794L361.88 11.3102L361.934 11.4311L362.848 11.025ZM361.873 9.7L361.33 10.5396L361.339 10.5453L361.348 10.5508L361.873 9.7ZM357.598 9.675L357.049 8.83895L357.043 8.84297L357.037 8.84708L357.598 9.675ZM357.223 12.325L356.476 12.9894L356.476 12.9894L357.223 12.325ZM358.473 13.125L358.092 14.0497L358.104 14.0545L358.116 14.0591L358.473 13.125ZM360.948 13.875L360.695 14.8425L360.712 14.8469L360.729 14.8507L360.948 13.875ZM364.473 15L364.04 15.9013L364.046 15.9044L364.473 15ZM366.423 16.575L365.588 17.1246L365.588 17.1246L366.423 16.575ZM366.148 21.825L365.348 21.225L365.346 21.2277L366.148 21.825ZM363.648 23.625L363.289 22.6916L363.284 22.6935L363.648 23.625ZM359.923 23.25C358.519 23.25 357.375 23.0389 356.462 22.6536L355.684 24.4964C356.905 25.0111 358.327 25.25 359.923 25.25V23.25ZM356.462 22.6536C355.516 22.2546 354.867 21.759 354.448 21.2L352.848 22.4C353.529 23.3077 354.497 23.9954 355.684 24.4964L356.462 22.6536ZM354.448 21.2C354.013 20.6195 353.797 20.0133 353.772 19.3616L351.774 19.4384C351.815 20.5201 352.183 21.5139 352.848 22.4L354.448 21.2ZM353.773 19.4C353.773 19.4618 353.761 19.534 353.73 19.6064C353.699 19.6776 353.66 19.7274 353.63 19.7571L352.216 18.3429C351.941 18.6178 351.773 18.9841 351.773 19.4H353.773ZM353.682 19.7008C353.65 19.7382 353.595 19.7874 353.515 19.8249C353.434 19.8628 353.356 19.875 353.298 19.875V17.875C352.848 17.875 352.448 18.0671 352.164 18.3992L353.682 19.7008ZM353.298 19.875H355.573V17.875H353.298V19.875ZM355.573 19.875C355.59 19.875 355.581 19.877 355.555 19.8698C355.528 19.862 355.486 19.8455 355.442 19.8137L356.604 18.1863C356.276 17.9519 355.907 17.875 355.573 17.875V19.875ZM355.442 19.8137C355.438 19.8111 355.467 19.8306 355.516 19.9047L357.18 18.7953C357.029 18.5694 356.841 18.3556 356.604 18.1863L355.442 19.8137ZM355.389 19.6322C355.634 20.466 356.18 21.1221 356.924 21.6107L358.022 19.9393C357.599 19.6612 357.396 19.3673 357.307 19.0678L355.389 19.6322ZM356.935 21.6177C357.753 22.1402 358.78 22.35 359.923 22.35V20.35C358.999 20.35 358.394 20.1764 358.011 19.9323L356.935 21.6177ZM359.923 22.35C361.167 22.35 362.275 22.1513 363.097 21.6107L361.999 19.9393C361.655 20.1653 361.012 20.35 359.923 20.35V22.35ZM363.103 21.6071C363.963 21.0338 364.448 20.1892 364.448 19.15H362.448C362.448 19.4775 362.334 19.7162 361.993 19.9429L363.103 21.6071ZM364.448 19.15C364.448 18.4526 364.205 17.8177 363.705 17.3179L362.291 18.7321C362.391 18.8323 362.448 18.9474 362.448 19.15H364.448ZM363.705 17.3179C363.257 16.8702 362.643 16.5486 361.955 16.3065L361.292 18.1935C361.836 18.3847 362.139 18.5798 362.291 18.7321L363.705 17.3179ZM361.985 16.318C361.332 16.0637 360.388 15.7773 359.178 15.4581L358.668 17.3919C359.858 17.706 360.714 17.9696 361.261 18.182L361.985 16.318ZM359.154 15.452C357.247 14.9996 355.982 14.4286 355.24 13.8079L353.956 15.3421C355.048 16.2547 356.666 16.9171 358.692 17.398L359.154 15.452ZM355.24 13.8079C354.596 13.2694 354.223 12.4773 354.223 11.275H352.223C352.223 12.9394 352.767 14.3473 353.956 15.3421L355.24 13.8079ZM354.223 11.275C354.223 10.5049 354.431 9.85141 354.838 9.27952L353.208 8.12048C352.548 9.04859 352.223 10.1117 352.223 11.275H354.223ZM354.844 9.27106C355.257 8.67686 355.86 8.18568 356.701 7.81509L355.895 5.98491C354.769 6.48099 353.855 7.18981 353.202 8.12893L354.844 9.27106ZM356.696 7.81756C357.547 7.44869 358.565 7.25 359.773 7.25V5.25C358.347 5.25 357.049 5.48465 355.9 5.98244L356.696 7.81756ZM359.773 7.25C361.042 7.25 362.078 7.47168 362.913 7.87535L363.783 6.07465C362.618 5.51165 361.271 5.25 359.773 5.25V7.25ZM362.919 7.87813C363.819 8.30614 364.435 8.81477 364.831 9.37595L366.466 8.22405C365.828 7.31856 364.91 6.61052 363.777 6.07186L362.919 7.87813ZM364.846 9.39701C365.289 9.9932 365.477 10.5227 365.499 10.9965L367.497 10.9035C367.452 9.94393 367.073 9.04013 366.45 8.20299L364.846 9.39701ZM365.498 10.95C365.498 10.8882 365.51 10.8268 365.532 10.7724C365.553 10.7198 365.577 10.6875 365.589 10.6742L367.107 11.9758C367.338 11.7072 367.498 11.358 367.498 10.95H365.498ZM365.641 10.6179C365.682 10.577 365.738 10.5368 365.808 10.509C365.876 10.4817 365.935 10.475 365.973 10.475V12.475C366.37 12.475 366.755 12.3319 367.055 12.0321L365.641 10.6179ZM365.973 10.475H363.598V12.475H365.973V10.475ZM363.598 10.475C363.55 10.475 363.584 10.4655 363.65 10.505C363.682 10.5241 363.71 10.5482 363.731 10.5734C363.752 10.5978 363.76 10.6158 363.762 10.6189L361.934 11.4311C362.073 11.7444 362.298 12.0261 362.621 12.22C362.937 12.4094 363.28 12.475 363.598 12.475V10.475ZM363.836 10.8706C363.697 9.98263 363.15 9.31362 362.399 8.8492L361.348 10.5508C361.729 10.7864 361.832 11.0007 361.86 11.1794L363.836 10.8706ZM362.416 8.86043C361.654 8.36686 360.754 8.15 359.773 8.15V10.15C360.459 10.15 360.959 10.2998 361.33 10.5396L362.416 8.86043ZM359.773 8.15C358.743 8.15 357.802 8.3448 357.049 8.83895L358.147 10.511C358.46 10.3052 358.97 10.15 359.773 10.15V8.15ZM357.037 8.84708C356.224 9.39771 355.823 10.2285 355.823 11.2H357.823C357.823 10.8382 357.938 10.6523 358.159 10.5029L357.037 8.84708ZM355.823 11.2C355.823 11.8631 356.026 12.4838 356.476 12.9894L357.97 11.6606C357.886 11.5662 357.823 11.4369 357.823 11.2H355.823ZM356.476 12.9894C356.882 13.4469 357.452 13.7862 358.092 14.0497L358.854 12.2003C358.36 11.9972 358.097 11.8031 357.97 11.6606L356.476 12.9894ZM358.116 14.0591C358.734 14.2953 359.601 14.5562 360.695 14.8425L361.201 12.9075C360.129 12.6271 359.346 12.388 358.83 12.1909L358.116 14.0591ZM360.729 14.8507C362.176 15.1758 363.269 15.5307 364.04 15.9013L364.906 14.0987C363.944 13.636 362.687 13.2409 361.167 12.8993L360.729 14.8507ZM364.046 15.9044C364.811 16.2649 365.297 16.6833 365.588 17.1246L367.258 16.0254C366.715 15.2001 365.902 14.5684 364.9 14.0956L364.046 15.9044ZM365.588 17.1246C365.869 17.5527 366.048 18.1547 366.048 19H368.048C368.048 17.8787 367.81 16.864 367.258 16.0254L365.588 17.1246ZM366.048 19C366.048 19.8861 365.807 20.6128 365.348 21.225L366.948 22.425C367.689 21.4372 368.048 20.2806 368.048 19H366.048ZM365.346 21.2277C364.895 21.8329 364.23 22.3299 363.289 22.6917L364.007 24.5583C365.233 24.0867 366.234 23.3838 366.95 22.4223L365.346 21.2277ZM363.284 22.6935C362.357 23.0556 361.244 23.25 359.923 23.25V25.25C361.436 25.25 362.805 25.0278 364.012 24.5565L363.284 22.6935Z" fill="#E6E6E6" fill-opacity="0.5"/>
</svg>
